<?xml version="1.0" encoding="UTF-8" standalone="no"?>
<!-- Created with Inkscape (http://www.inkscape.org/) -->

<svg
   version="1.1"
   id="svg1"
   width="1666.8401"
   height="931.70355"
   viewBox="0 0 1666.8401 931.70355"
   sodipodi:docname="Logo_full (Copy).svg"
   inkscape:version="1.4 (e7c3feb100, 2024-10-09)"
   xmlns:inkscape="http://www.inkscape.org/namespaces/inkscape"
   xmlns:sodipodi="http://sodipodi.sourceforge.net/DTD/sodipodi-0.dtd"
   xmlns="http://www.w3.org/2000/svg"
   xmlns:svg="http://www.w3.org/2000/svg">
  <defs
     id="defs1" />
  <sodipodi:namedview
     id="namedview1"
     pagecolor="#ffffff"
     bordercolor="#000000"
     borderopacity="0.25"
     inkscape:showpageshadow="2"
     inkscape:pageopacity="0.0"
     inkscape:pagecheckerboard="0"
     inkscape:deskcolor="#d1d1d1"
     inkscape:zoom="0.14870741"
     inkscape:cx="1573.5598"
     inkscape:cy="1321.3868"
     inkscape:window-width="1440"
     inkscape:window-height="894"
     inkscape:window-x="0"
     inkscape:window-y="29"
     inkscape:window-maximized="1"
     inkscape:current-layer="g1" />
  <g
     inkscape:groupmode="layer"
     inkscape:label="Image"
     id="g1"
     transform="translate(-3.4766815,996.54032)">
    <path
       id="path1"
       style="fill:#ffffff;fill-opacity:1"
       d="M 502.84582 -995.74735 C 466.04067 -995.99417 429.18642 -993.96101 392.5177 -989.8079 C 198.63385 -967.94665 34.787916 -802.26675 9.187619 -609.69852 C -19.888572 -430.34849 73.728611 -239.19051 233.25598 -151.81376 C 300.43982 -106.90069 378.2561 -80.536156 458.22863 -70.82157 C 592.13123 -56.658143 733.72382 -70.450454 859.76965 -122.50516 C 927.79905 -160.24545 1009.2244 -204.65618 1024.4415 -288.57938 C 1004.6012 -276.22761 969.33938 -224.50181 935.67199 -206.75321 C 826.48246 -132.94982 687.59075 -106.49802 558.34192 -127.47001 C 489.50038 -134.00941 418.7736 -150.27595 361.55871 -192.02079 C 288.11097 -236.95386 212.08463 -295.93765 192.77746 -384.75712 C 205.95884 -382.62019 214.21662 -342.50384 248.47668 -300.17899 C 262.12627 -283.31629 295.21802 -248.55533 307.01965 -249.00516 C 263.89658 -305.78728 246.81877 -377.15123 236.12512 -446.17118 C 234.15554 -497.26543 233.32305 -548.87992 236.24621 -600.01298 C 238.83561 -657.45325 259.18743 -715.8591 298.67785 -758.27079 C 301.73516 -746.62094 272.03897 -710.33029 256.26965 -662.44266 C 250.30242 -644.3216 239.99531 -568.11223 249.80285 -582.00321 C 274.11796 -645.49184 306.60504 -712.12198 368.97473 -745.81376 C 462.59663 -805.26755 580.51115 -794.3958 685.39074 -780.17899 C 698.23078 -777.98211 710.17207 -775.4729 719.53137 -772.41923 C 720.78604 -772.00987 723.48381 -771.27257 725.56653 -770.89188 C 729.35101 -770.20013 729.36187 -770.20711 743.56653 -784.00321 C 755.93027 -796.01133 774.21143 -810.49888 787.18567 -818.57157 C 790.18798 -820.43964 792.76041 -820.09986 793.6759 -817.71415 C 794.03425 -816.78029 785.8192 -807.90993 770.16809 -792.33524 C 756.93505 -779.16681 746.36577 -767.97348 746.68176 -767.46219 C 747.57743 -766.01297 765.29755 -761.92174 766.30676 -762.93094 C 766.79349 -763.41769 770.34629 -768.89536 774.20129 -775.10477 C 784.09377 -791.03902 792.67087 -802.65325 797.19153 -806.23368 C 801.326 -809.50824 805.70335 -810.24872 806.63098 -807.83134 C 807.84843 -804.65873 802.64051 -794.01459 790.07043 -773.98173 C 784.49385 -765.09437 782.34478 -760.84019 783.06653 -760.11844 C 783.95792 -759.22705 791.97517 -759.39878 801.64856 -760.51688 C 804.56867 -760.85441 805.85261 -763.72716 810.24621 -779.75126 C 814.43098 -795.01372 817.60715 -801.30399 821.13098 -801.30399 C 824.38473 -801.30399 825.28149 -799.12864 825.23449 -791.35282 C 825.20379 -786.24674 824.13477 -779.65687 821.93176 -770.99149 C 820.14017 -763.94441 819.08009 -757.92707 819.57629 -757.6204 C 821.58313 -756.3801 836.94167 -758.5134 841.78137 -760.70438 C 847.83627 -763.44543 859.29088 -775.72203 859.25988 -779.4368 C 859.24898 -780.73819 856.99898 -784.66895 854.25988 -788.17118 C 847.17578 -797.22897 847.34032 -798.00925 858.97082 -810.67509 C 862.44132 -814.45455 865.28137 -818.41114 865.28137 -819.4661 C 865.28137 -820.52106 864.3182 -823.27746 863.1427 -825.59305 C 859.7164 -832.34256 836.46811 -871.01253 830.24231 -880.31766 C 822.31004 -892.17325 807.20541 -908.31188 799.00207 -913.69657 C 795.27414 -916.1436 790.66534 -919.51379 788.75988 -921.1868 C 786.85442 -922.85982 780.94657 -926.78888 775.63098 -929.91727 C 764.73046 -936.33257 748.80888 -950.37253 745.9259 -956.11259 C 742.43534 -963.06236 732.97487 -978.80305 730.87707 -981.14969 C 727.50361 -984.92332 722.95745 -986.68624 718.10754 -986.5579 C 711.87194 -986.39289 705.13384 -983.10097 699.73645 -976.93094 L 695.46692 -972.05204 L 690.79504 -973.64384 C 690.01673 -973.90903 686.9972 -974.39081 685.39074 -974.76493 C 625.39544 -988.59083 564.18775 -995.33599 502.84582 -995.74735 z M 796.39856 -881.38016 L 800.4259 -880.91923 C 806.45417 -880.22667 811.75008 -876.25824 813.79504 -870.9036 C 815.45052 -866.56878 815.44384 -866.26649 813.59387 -863.09891 C 812.53553 -861.28677 809.89409 -858.80033 807.72473 -857.57157 C 803.06527 -854.93237 801.86107 -856.09664 799.25403 -856.83524 C 794.45989 -858.19347 798.21126 -859.08963 800.50207 -860.98368 C 803.9781 -863.85768 803.56805 -870.89923 800.2384 -873.39384 C 799.62377 -873.85433 794.92328 -876.73488 795.44348 -878.3743 L 796.39856 -881.38016 z M 793.79113 -872.23368 C 795.23499 -872.27837 796.68557 -871.56493 797.72473 -870.08134 C 799.86042 -867.03221 799.68652 -865.61929 796.82629 -862.75907 C 793.89792 -859.83069 792.16212 -859.67191 789.93567 -862.13212 C 787.85011 -864.43662 787.83735 -866.69932 789.89465 -869.83915 C 790.90838 -871.38629 792.34728 -872.18899 793.79113 -872.23368 z " />
    <path
       style="fill:#ffffff;fill-opacity:1"
       d="m 863.03681,-785.61805 c -3.6185,-3.02394 -6.7481,-8.62202 -6.7525,-12.07859 0,-2.12949 1.2779,-4.17455 4.8534,-7.75 2.6714,-2.67143 5.518,-4.85714 6.3257,-4.85714 0.8077,0 2.546,1.14691 3.8629,2.5487 1.9239,2.04793 2.4694,3.87567 2.776,9.30243 0.3486,6.16867 0.1469,7.03269 -2.3279,9.97384 -4.1179,4.89387 -5.6893,5.40832 -8.7376,2.86076 z"
       id="path60" />
    <path
       style="fill:#ffffff;fill-opacity:1"
       d="m 672.78056,-622.47076 c -3.57498,-1.97725 -6.65321,-5.25222 -8.71292,-9.26978 -1.68082,-3.27852 -1.94599,-5.31401 -1.58594,-12.17387 0.36003,-6.85942 0.88782,-8.92541 3.15562,-12.35229 3.83698,-5.79806 7.93154,-8.0288 14.74536,-8.03334 7.0326,-0.005 11.33921,2.6694 14.64509,9.09354 6.00235,11.66405 2.83194,25.91997 -7.11304,31.98412 -3.5145,2.14304 -11.86829,2.55792 -15.13417,0.75162 z"
       id="path59" />
    <path
       style="fill:#ffffff;fill-opacity:1"
       d="m 1284.7806,-621.03263 c -5.2727,-0.92014 -6.5716,-1.46053 -9.5652,-3.97949 -4.5235,-3.80627 -6.8865,-9.58057 -6.9128,-16.89244 -0.05,-13.85645 6.9201,-22.62999 17.978,-22.62999 8.1304,0 13.2989,4.15779 16.521,13.29043 4.4238,12.53811 -1.8425,26.73311 -13.1483,29.78504 -1.58,0.42651 -3.7727,0.61841 -4.8727,0.42645 z"
       id="path58" />
    <path
       style="fill:#ffffff;fill-opacity:1"
       d="m 965.37091,-619.38109 c -0.5633,-1.33248 -2.4179,-6.12524 -4.1214,-10.65058 -1.9564,-5.19738 -4.0653,-8.98935 -5.7255,-10.29528 -1.4455,-1.13706 -7.2667,-3.4871 -12.9358,-5.22231 -5.6692,-1.7352 -10.3076,-3.6277 -10.3076,-4.20555 0,-0.57784 4.2876,-3.86669 9.5281,-7.30853 5.9908,-3.93469 9.8889,-7.20695 10.5,-8.81428 0.5345,-1.406 0.9719,-7.02706 0.9719,-12.49126 0,-6.53359 0.375,-9.9349 1.0954,-9.9349 0.6025,0 4.765,2.43715 9.25,5.41588 12.3576,8.20735 12.2482,8.17686 21.881,6.09857 4.5505,-0.98179 10.0313,-2.40398 12.1796,-3.16044 2.1483,-0.75645 4.11419,-1.16718 4.36859,-0.91273 0.2545,0.25445 -1.1912,5.62359 -3.21249,11.93142 l -3.6752,11.46877 7.55659,10.41984 c 4.1561,5.73091 7.5565,10.66417 7.5565,10.96282 0,0.29864 -5.8211,0.30689 -12.93579,0.0183 l -12.9359,-0.52465 -2.8218,2.89109 c -1.552,1.59011 -5.6051,6.00631 -9.0069,9.81379 -6.0596,6.78221 -6.2059,6.87353 -7.2093,4.5 z"
       id="path57" />
    <path
       style="fill:#ffffff;fill-opacity:1"
       d="m 924.28061,-567.01475 c -1.925,-0.23739 -3.8588,-0.78087 -4.2974,-1.20774 -0.8009,-0.77951 3.7735,-14.9565 8.7382,-27.08129 5.0758,-12.3961 11.9058,-25 13.5474,-25 0.8731,0 3.1401,1.29633 5.038,2.88073 3.3466,2.79391 3.4164,2.99735 2.3142,6.75 -0.625,2.1281 -3.2613,8.81927 -5.8583,14.86927 -2.597,6.05 -6.192,15.05 -7.9888,20 -3.5469,9.77101 -3.5446,9.76928 -11.4933,8.78903 z"
       id="path56" />
    <path
       style="fill:#ffffff;fill-opacity:1"
       d="m 903.12481,-493.63149 c -13.2245,-4.9625 -22.0242,-15.08744 -24.9436,-28.69978 -0.9953,-4.64085 -0.8668,-5.52151 1.5165,-10.39266 1.4321,-2.92718 4.4285,-7.39507 6.6587,-9.92865 5.1367,-5.83564 16.7996,-11.81527 24.2123,-12.41381 5.9916,-0.48379 16.9304,1.81313 22.7332,4.77349 4.2901,2.18863 4.9425,4.32405 2.9344,9.60551 -0.5743,1.51062 -2.6065,11.55242 -4.516,22.3151 -4.1076,23.15211 -4.0003,22.76299 -6.6671,24.19019 -3.3196,1.77663 -17.6991,2.13769 -21.9284,0.55061 z"
       id="path55" />
    <path
       style="fill:#ffffff;fill-opacity:1"
       d="m 1058.1247,-446.26607 c -2.5608,-1.60836 -4.9236,-3.35727 -5.2506,-3.88646 -0.3271,-0.5292 0.6851,-3.81722 2.2492,-7.30672 5.7542,-12.83733 14.5481,-43.19637 17.0451,-58.84453 6.0415,-37.86142 6.7693,-47.62127 5.3542,-71.80069 -1.6354,-27.9441 -5.7656,-46.60898 -13.8741,-62.69931 -9.6155,-19.08088 -23.0096,-29.21493 -38.1586,-29.61404 -4.8785,-0.12853 -13.7105,-0.1536 -13.7105,-0.1536 0,0 0.031,-3.10434 0.024,-4.96942 l -0.023,-6.26294 h 13.0521 c 8.5568,0.29783 15.1527,0.80221 20.5,3.68195 4.0232,2.16666 9.5362,5.30943 12.0886,7.29858 14.1907,11.05936 25.5289,34.64405 31.0695,64.62788 2.0879,11.29887 2.2863,15.21342 2.2499,44.39159 -0.036,29.17823 -0.2301,32.81206 -2.1967,41.20904 -1.1863,5.06497 -2.6604,12.88654 -3.2758,17.38126 -2.6337,19.23537 -18.158,69.94703 -21.3956,69.8907 -0.6006,-0.0104 -3.1872,-1.33493 -5.7479,-2.94329 z"
       id="path54"
       sodipodi:nodetypes="ssssssscsccssscsssss" />
    <path
       style="fill:#ffffff;fill-opacity:1"
       d="m 1001.2806,-435.52436 c 0,-0.27084 2.1852,-4.29003 4.8561,-8.93154 14.9604,-25.99878 21.1668,-40.43056 23.5876,-54.84788 4.9381,-29.41029 3.0926,-52.45648 -4.9489,-61.79914 -2.9469,-3.4238 -3.9421,-2.47422 -2.5733,2.45537 1.8396,6.62501 1.2442,19.9816 -1.4642,32.84377 -1.3897,6.6 -3.1633,15.25654 -3.9413,19.23675 -2.7411,14.02309 -14.7462,33.22823 -23.64879,37.83193 -3.9879,2.06221 -10.8606,2.80072 -14.1705,1.52271 -1.9927,-0.76941 -3.583,-2.74633 -5.5,-6.83689 -2.5157,-5.36821 -2.6908,-6.62717 -2.6087,-18.7545 0.055,-8.09745 0.7288,-16.01695 1.7871,-21 9.5324,-44.88491 23.2071,-64.22098 45.12489,-63.80695 7.012,0.13245 9.926,1.11164 14.326,4.81398 4.763,4.00785 7.7836,9.87575 10.8203,21.02007 2.3944,8.78743 2.7039,11.63707 2.6035,23.9729 -0.1337,16.42557 -2.8258,34.01345 -7.3132,47.77821 -3.3337,10.22597 -17.0084,38.57185 -19.8474,41.14108 -0.9972,0.90243 -3.1127,1.82533 -4.7011,2.05089 -1.5885,0.22556 -5.0256,0.72321 -7.6381,1.10589 -2.6125,0.38268 -4.75,0.47419 -4.75,0.20335 z"
       id="path53" />
    <path
       style="fill:#ffffff;fill-opacity:1"
       d="m 1276.1197,-420.76717 c -1.9939,-1.35487 -4.5818,-4.43946 -5.751,-6.85466 -2.1171,-4.37327 -2.1247,-4.69613 -1.8569,-78.78661 l 0.2688,-74.39534 2.7854,-4.28624 c 3.7431,-5.75996 7.9806,-8.20628 14.2146,-8.20628 8.3857,0 15.3409,5.99437 17.4188,15.01257 1.2872,5.58624 1.4237,139.7986 0.1478,145.2956 -1.1281,4.86045 -5.183,10.73118 -8.9482,12.95533 -4.5821,2.70674 -13.7578,2.33811 -18.2793,-0.73437 z"
       id="path52" />
    <path
       style="fill:#ffffff;fill-opacity:1"
       d="m 670.25293,-420.55378 c -1.82787,-1.2375 -4.36942,-4.23328 -5.64789,-6.65728 l -2.32448,-4.40729 v -73.37483 c 0,-63.96549 0.19848,-73.84986 1.54773,-77.07907 3.1256,-7.48062 8.55407,-11.23153 16.25473,-11.23153 7.91517,0 14.77664,6.00947 17.21942,15.08127 1.21991,4.53038 1.26414,138.22513 0.0479,144.67211 -0.96839,5.13311 -4.95886,11.15919 -8.95132,13.5176 -4.42428,2.61348 -13.91888,2.34089 -18.14605,-0.52098 z"
       id="path51" />
    <path
       style="fill:#ffffff;fill-opacity:1"
       d="m 520.50608,-420.43432 c -1.80096,-1.15327 -4.41399,-4.04127 -5.80672,-6.41779 l -2.53224,-4.32094 0.35651,-52.81536 c 0.34561,-51.19873 0.42462,-53.03961 2.58139,-60.14173 6.78013,-22.32648 16.59346,-34.54728 34.66716,-43.17191 9.54466,-4.55465 15.91508,-6.00173 26.42111,-6.00173 11.10591,0 17.4225,1.41515 26.72803,5.98808 15.61409,7.67308 30.82591,27.85676 30.82591,40.9011 0,12.91679 -10.79019,22.25497 -22.17358,19.18974 -4.98955,-1.34355 -8.46082,-4.73746 -12.39508,-12.11889 -1.67302,-3.13892 -4.5398,-7.15898 -6.3706,-8.93347 -2.9622,-2.87107 -4.24653,-3.32902 -11.66349,-4.15882 -16.94001,-1.89524 -24.75219,2.04058 -31.03055,15.63337 -2.2914,4.96091 -2.31283,5.38258 -2.82115,55.49889 -0.56901,56.09945 -0.24117,53.48179 -7.49593,59.85156 -3.20609,2.81498 -4.24415,3.14666 -9.80109,3.13159 -4.58211,-0.0124 -7.07559,-0.56781 -9.48968,-2.1137 z"
       id="path50" />
    <path
       style="fill:#ffffff;fill-opacity:1"
       d="m 1389.8072,-418.41765 c -12.6212,-1.83824 -23.9031,-10.44455 -30.7021,-23.42089 -7.0717,-13.49684 -7.1179,-13.88134 -7.7531,-64.46523 l -0.5714,-45.5 -8.0519,-0.5 c -5.3557,-0.33257 -8.9624,-1.09835 -10.7711,-2.2869 -3.7158,-2.44175 -8.4781,-10.33925 -9.2354,-15.3153 -0.8597,-5.64863 2.4958,-13.16358 8.243,-18.46122 l 4.4581,-4.10932 7.6787,0.33637 7.6786,0.33637 0.5,-29.57562 0.5,-29.57561 2.684,-4.05324 c 2.829,-4.27218 9.5734,-8.29982 13.8817,-8.28995 7.5144,0.0172 15.4293,5.77677 17.83,12.97462 0.778,2.33256 1.1313,12.53367 1.0715,30.93485 l -0.089,27.45466 13.9873,0.0651 c 16.2509,0.0757 17.3818,0.55094 22.9547,9.64665 2.9527,4.81913 3.2774,6.05511 2.9358,11.17368 -0.2908,4.35739 -1.0971,6.76326 -3.3199,9.90577 -5.5148,7.79669 -6.8168,8.29797 -22.5051,8.66463 l -13.931,0.32562 v 41.95653 c 0,46.39529 0.092,47.14873 6.1898,50.86667 4.052,2.47043 10.6527,2.63311 16.4836,0.40625 5.3544,-2.04486 9.7868,-1.27865 15.1727,2.62283 9.1253,6.61039 11.1523,19.35612 4.6426,29.19299 -3.4163,5.16237 -8.6851,7.57555 -19.1603,8.77569 -10.0041,1.14616 -12.41,1.13621 -20.8018,-0.086 z"
       id="path49" />
    <path
       style="fill:#ffffff;fill-opacity:1"
       d="m 1169.6154,-418.33295 c -28.2283,-2.95998 -52.6874,-26.6668 -45.8863,-44.4751 2.0104,-5.26427 8.2693,-11.0313 13.7563,-12.67523 5.5438,-1.66096 10.1984,0.14023 17.2952,6.69276 3.3,3.0469 7.9183,6.47082 10.2629,7.60872 8.7808,4.26158 29.7653,3.36851 37.3308,-1.58875 7.3325,-4.80455 8.755,-13.95841 2.9308,-18.85918 -3.8366,-3.22827 -9.8753,-4.44023 -25.1141,-5.04038 -20.521,-0.80817 -30.7157,-4.43951 -41.4786,-14.77456 -10.8413,-10.41037 -15.4318,-21.55545 -15.4318,-37.46644 0,-12.98194 1.2833,-19.09545 5.8482,-27.86107 7.0345,-13.50753 19.4057,-22.99346 34.0298,-26.09325 13.3968,-2.83964 35.7868,-1.17768 46.4202,3.44567 15.5153,6.74597 25.6967,19.0874 25.6701,31.11598 -0.022,9.95015 -4.7983,16.80004 -13.3127,19.09274 -7.1827,1.93409 -10.4708,0.70327 -17.2527,-6.45793 -3.3534,-3.54097 -8.0651,-7.44217 -10.4706,-8.66933 -5.2151,-2.66059 -14.7976,-3.63097 -20.5313,-2.07913 -11.3216,3.06425 -18.1873,13.90423 -14.2624,22.51841 2.2324,4.89977 12.0061,7.59524 27.54,7.59524 23.3869,0 37.4608,6.83058 48.2757,23.42985 5.7666,8.85098 8.2048,16.38329 8.8012,27.18959 1.5132,27.41711 -12.8413,46.51163 -40.7555,54.21349 -4.125,1.13814 -10.425,2.33781 -14,2.66595 -3.575,0.32813 -7.85,0.73761 -9.5,0.90994 -1.65,0.17234 -6.2243,-0.0248 -10.1652,-0.43799 z"
       id="path48" />
    <path
       style="fill:#ffffff;fill-opacity:1"
       d="m 787.6203,-418.28309 c -12.68631,-1.41796 -20.8447,-5.16016 -32.10165,-14.7248 -10.50168,-8.9229 -20.12452,-25.85198 -24.89449,-43.79586 -2.40947,-9.06406 -2.66695,-11.77829 -2.75094,-29 -0.1037,-21.2629 1.18688,-29.80666 6.63737,-43.94026 4.56505,-11.83758 9.3108,-19.23679 17.43639,-27.18549 15.39934,-15.06412 34.93036,-21.07275 54.80937,-16.86187 21.33316,4.51891 37.12866,22.17077 44.22286,49.4201 1.9832,7.61775 2.601,12.96152 3.0316,26.22184 0.5112,15.74226 0.4196,16.90472 -1.6726,21.22666 -1.2174,2.51479 -3.5629,5.70785 -5.2123,7.09568 l -2.9988,2.52331 h -39.36426 c -21.65034,0 -39.54691,0.3375 -39.77015,0.75 -0.9701,1.79252 4.79763,13.60068 8.8387,18.09533 7.97905,8.87461 17.15265,11.22268 35.95457,9.20291 8.39179,-0.90148 11.94153,-1.75071 14.99454,-3.58726 7.9757,-4.79771 10.4409,-5.59239 15.1552,-4.88545 7.8613,1.17889 12.7146,6.90801 14.3467,16.93573 1.2966,7.96698 -0.1879,11.90043 -7.0113,18.5771 -6.6463,6.50343 -14.2727,10.47184 -23.83317,12.40171 -8.7356,1.76336 -26.82069,2.53619 -35.81764,1.53059 z m 31.66026,-108.86414 c 0,-1.56521 -3.7381,-11.723 -5.77936,-15.70465 -4.0163,-7.83413 -10.78594,-11.67012 -20.72064,-11.74127 -11.05796,-0.0792 -19.09611,5.79291 -24.66355,18.01741 -5.04956,11.0874 -6.96778,10.27196 24.16355,10.27196 14.85,0 27,-0.37955 27,-0.84345 z"
       id="path47" />
    <path
       style="fill:#ffffff;fill-opacity:1"
       d="m 407.04395,-418.33659 c -19.84107,-3.34091 -37.06622,-18.11569 -46.07565,-39.52114 -5.44443,-12.9354 -5.53325,-13.99858 -5.8433,-69.94605 -0.25758,-46.47988 -0.11547,-52.31847 1.33868,-55 3.36627,-6.20758 10.24762,-10.5 16.83296,-10.5 4.67735,0 7.25932,1.11098 11.3232,4.87219 6.34998,5.87705 6.11295,3.7551 6.66072,59.62781 l 0.5,51 2.38935,5.28768 c 4.85367,10.74124 14.53944,16.01361 27.50616,14.97277 13.62924,-1.09402 21.35899,-9.05553 23.55423,-24.26045 0.55931,-3.8739 1.01949,-27.06701 1.03045,-51.93428 0.0191,-43.33452 0.0933,-45.08608 2.08397,-49.19826 4.08112,-8.43047 15.29991,-12.84821 22.7355,-8.95278 3.68563,1.93086 8.85103,7.48418 10.13901,10.90042 0.69383,1.84035 1.06133,19.20162 1.06133,50.13953 0,38.80829 -0.28232,48.8127 -1.56886,55.59479 -3.51602,18.53496 -11.6098,33.86379 -22.79879,43.17872 -13.8169,11.50268 -33.14621,16.72328 -50.86896,13.73905 z"
       id="path46" />
    <path
       style="fill:#ffffff;fill-opacity:1"
       d="m 974.28061,-409.41452 c -4.125,-1.04457 -9.2942,-3.15182 -11.4872,-4.68277 -19.419,-13.55697 -26.2938,-55.33287 -17.3956,-105.70649 4.5248,-25.61517 15.3351,-56.19148 26.491,-74.92809 6.8175,-11.45007 16.3234,-23.73569 18.8471,-24.35826 0.6384,-0.1575 2.6518,2.0147 4.4742,4.8271 l 3.3134,5.11346 -3.0202,3.17289 c -10.5527,11.08626 -24.2577,39.91031 -31.215,65.65076 -11.7718,43.55288 -12.2299,85.02485 -1.1784,106.6876 2.8718,5.62905 9.255,11.0889 13.861,11.85595 6.3675,1.06037 6.3097,0.99266 6.3097,7.38819 0,3.2848 -0.3375,6.17633 -0.75,6.42562 -0.4125,0.24929 -4.125,-0.40139 -8.25,-1.44596 z"
       id="path45" />
    <path
       style="fill:#ffffff;fill-opacity:1"
       d="m 1040.3391,-372.74753 -9.1574,-8.80947 -13.9505,0.44522 c -7.6728,0.24488 -13.9506,0.17099 -13.9506,-0.16418 0,-0.33517 2.695,-4.86604 5.9888,-10.06861 3.2938,-5.20256 5.9761,-10.13421 5.9605,-10.95921 -0.015,-0.825 -2.4603,-6.2127 -5.4328,-11.97266 -2.9725,-5.75997 -5.2996,-10.57756 -5.1714,-10.70577 0.4065,-0.40649 17.0303,2.6477 20.0541,3.68443 1.5946,0.5467 3.8494,0.994 5.0107,0.994 2.5362,0 13.8069,-7.40156 18.3286,-12.03658 1.7812,-1.82581 3.5742,-2.98403 3.9844,-2.5738 0.7507,0.75063 2.4157,7.62415 4.2088,17.37486 0.5325,2.89546 1.2328,5.69263 1.5562,6.21593 0.3234,0.52331 5.2885,3.47279 11.0336,6.55441 5.7451,3.08163 10.7357,6.07227 11.0902,6.64587 0.7933,1.28365 -1.4138,2.78338 -4.1265,2.804 -1.1082,0.008 -3.6155,0.87324 -5.572,1.92182 -1.9564,1.04859 -5.4426,2.47142 -7.747,3.16185 -2.3045,0.69043 -4.577,1.745 -5.05,2.34349 -0.473,0.59848 -2.1057,5.58815 -3.6283,11.08815 -1.5226,5.5 -3.1067,10.64479 -3.5202,11.43286 -0.5637,1.07421 -3.044,-0.7722 -9.9092,-7.37661 z"
       id="path44" />
    <path
       style="fill:#ffffff;fill-opacity:1"
       d="m 954.36201,-350.89225 c -9.302,-2.50091 -17.2764,-8.26038 -25.71,-18.56875 -5.3404,-6.52746 -14.4001,-21.25667 -14.343,-23.31857 0.029,-1.03791 10.0531,-7.52421 11.6284,-7.52421 0.4709,0 1.447,1.9125 2.1691,4.25 1.8521,5.99529 9.4549,17.87828 15.2361,23.81364 2.7212,2.79374 7.4626,6.23046 10.6681,7.73256 5.0015,2.34375 7.035,2.7038 15.2699,2.7038 8.9518,0 9.9328,-0.21455 17,-3.71805 4.125,-2.04493 8.4697,-4.43392 9.655,-5.30886 2.0308,-1.49919 2.3062,-1.42904 4.78119,1.21805 3.8953,4.16602 4.3632,7.19123 1.4568,9.41764 -4.55259,3.48743 -13.57959,7.83501 -19.43459,9.36003 -7.304,1.90246 -21.1922,1.87443 -28.377,-0.0573 z"
       id="path43" />
    <path
       style="fill:#ffffff;fill-opacity:1"
       d="m 1491.0402,-349.35164 c -8.6012,-1.00174 -15.3042,-3.19467 -24.98,-8.17242 -9.8911,-5.08852 -14.2271,-9.80139 -15.7451,-17.11373 -1.993,-9.60011 0.8792,-16.75279 8.7254,-21.72869 6.0601,-3.84318 9.7125,-3.73171 18.2273,0.55626 9.4171,4.74236 21.7465,6.81835 37.5107,6.31593 19.8175,-0.6316 23.5001,-4.00304 25.5064,-23.35107 0.5574,-5.37566 0.7936,-9.99387 0.5248,-10.26268 -0.2688,-0.26881 -3.0815,0.50343 -6.2503,1.71609 -7.9181,3.03007 -19.1512,4.30049 -28.0951,3.17744 -11.3887,-1.43001 -26.1779,-9.24597 -34.0256,-17.98224 -10.7132,-11.92618 -19.4665,-32.89862 -21.5394,-51.60703 -0.3047,-2.75 -0.6811,-24.83693 -0.8364,-49.08207 l -0.2823,-44.08206 2.7637,-3.99152 c 5.5427,-8.005 16.2004,-10.7972 23.7186,-6.21403 4.1788,2.54739 5.5222,4.11101 8.0506,9.36968 1.8014,3.74681 1.9257,6.65854 1.9625,46 0.042,45.17794 0.4959,50.34044 5.3553,60.9548 5.0005,10.92249 14.8231,18.23657 23.2201,17.2901 6.0076,-0.67713 14.2218,-4.77754 19.7071,-9.83751 4.5986,-4.24199 4.8132,-4.68884 5.7191,-11.90739 0.5177,-4.125 0.9551,-28.48664 0.9721,-54.13699 l 0.031,-46.63698 3.25,-4.8412 c 3.7414,-5.57321 9.7013,-9.35193 14.75,-9.35193 4.8338,0 10.8361,3.65795 14.4584,8.8113 l 3.0416,4.32724 0.2968,81.16428 c 0.2016,55.12487 -0.062,84.32934 -0.8204,91.02971 -3.852,34.01368 -16.7627,51.80687 -41.4331,57.10181 -5.921,1.2708 -32.8273,3.80685 -36.0433,3.39727 -0.55,-0.0701 -4.0332,-0.48062 -7.7404,-0.91237 z"
       id="path42" />
    <path
       style="fill:#ffffff;fill-opacity:1"
       d="m 1546.4806,-337.50378 c -1.6298,-1.62976 -1.5076,-3.34956 0.3714,-5.22857 2.3779,-2.37791 5.3124,-1.92054 6.6605,1.03812 1.0206,2.2401 0.9197,2.80639 -0.7126,4 -2.3361,1.70818 -4.7294,1.78031 -6.3193,0.19045 z"
       id="path41" />
    <path
       style="fill:#ffffff;fill-opacity:1"
       d="m 1001.6701,-337.73105 c -0.3012,-0.785 -0.3996,-2.4725 -0.2186,-3.75 0.4833,-3.41096 5.7837,-3.28621 7.532,0.17727 1.075,2.12948 1.014,2.68526 -0.4116,3.75 -2.2565,1.68543 -6.2261,1.58347 -6.9018,-0.17727 z"
       id="path40" />
    <path
       style="fill:#ffffff;fill-opacity:1"
       d="m 579.53056,-336.96606 c -1.77504,-0.71625 -1.57404,-6.27615 0.25224,-6.97695 0.82623,-0.31706 2.62623,-0.29436 4,0.0504 1.93886,0.48662 2.49776,1.26997 2.49776,3.50085 0,3.52489 -2.88081,4.98691 -6.75,3.42566 z"
       id="path39" />
    <path
       style="fill:#ffffff;fill-opacity:1"
       d="m 497.29794,-337.78284 c -2.16915,-2.61367 0.26507,-6.7367 3.74107,-6.33655 2.40642,0.27703 2.74155,0.74346 2.74155,3.81561 0,3.02007 -0.35454,3.54121 -2.5856,3.80056 -1.45562,0.1692 -3.15872,-0.39002 -3.89702,-1.27962 z"
       id="path38" />
    <path
       style="fill:#ffffff;fill-opacity:1"
       d="m 1189.5306,-306.96648 c -0.7599,-0.30663 -1.25,-2.41433 -1.25,-5.37574 0,-4.70734 0.1098,-4.89195 3.2604,-5.48301 1.7932,-0.33641 4.4683,-0.15242 5.9446,0.40886 2.4163,0.91868 2.6313,1.39931 2.1543,4.81634 -0.2914,2.08771 -0.7023,4.35833 -0.9132,5.04583 -0.3761,1.22632 -6.6239,1.62562 -9.1961,0.58772 z"
       id="path37" />
    <path
       style="fill:#ffffff;fill-opacity:1"
       d="m 1122.9473,-306.97048 c -0.9171,-0.91709 -0.8447,-10.12549 0.083,-10.59373 0.4125,-0.20813 3.1125,-0.19126 6,0.0375 l 5.25,0.41593 v 3.8217 c 0,6.21703 -0.6533,6.98527 -5.9403,6.98527 -2.5995,0 -5.0264,-0.3 -5.393,-0.66667 z"
       id="path36" />
    <path
       style="fill:#ffffff;fill-opacity:1"
       d="m 1646.4725,-297.32821 c -6.1715,-3.76263 -9.1,-15.47315 -5.8279,-23.30441 2.8484,-6.81705 11.4601,-11.38689 18.0364,-9.57108 6.5136,1.79848 12.3721,10.44999 11.4462,16.90284 -0.4384,3.05452 -2.9291,3.76848 -13.5966,3.89737 -8.4172,0.1017 -9.1665,0.51862 -7.2771,4.04905 1.3966,2.60947 6.611,3.23254 13.5009,1.6132 3.2855,-0.77222 6.323,-1.18814 6.75,-0.92428 1.7151,1.06002 0.6051,4.32786 -2.3005,6.77282 -2.6856,2.25972 -3.9888,2.58841 -10.25,2.58515 -5.4285,-0.003 -7.978,-0.49434 -10.4814,-2.02066 z m 13.4986,-20.61152 c 1.0146,-2.64403 -1.1238,-4.84117 -5.0359,-5.17409 -3.1101,-0.26468 -3.8181,0.0748 -4.8418,2.32161 -1.4921,3.27471 -0.054,4.45072 5.4686,4.47309 2.5884,0.0105 3.9794,-0.50079 4.4091,-1.62061 z"
       id="path35" />
    <path
       style="fill:#ffffff;fill-opacity:1"
       d="m 1608.377,-296.56855 c -6.75,-3.46898 -9.9491,-16.0443 -7.1503,-28.10752 1.1391,-4.90943 2.2901,-6.03625 5.3751,-5.26196 2.4235,0.60824 2.4741,0.83187 2.8233,12.47349 0.3991,13.30794 1.1819,15.16073 6.4054,15.16073 2.3711,0 3.8849,-0.73725 5.3573,-2.6092 1.7829,-2.26648 2.0467,-3.99398 2.0091,-13.15172 -0.032,-7.65526 0.3164,-10.77063 1.2702,-11.37548 1.88,-1.19219 3.1633,-1.05949 5.3724,0.55552 1.7178,1.25591 1.9411,2.68439 1.9411,12.42037 0,12.2141 -0.867,14.40302 -7.4898,18.91051 -3.7627,2.56083 -11.8712,3.06285 -15.9138,0.98526 z"
       id="path34" />
    <path
       style="fill:#ffffff;fill-opacity:1"
       d="m 1546.3975,-297.51678 c -1.2286,-3.3213 -1.3856,-26.95006 -0.1998,-30.06905 1.1164,-2.93621 4.679,-3.72192 6.8829,-1.51798 1.2677,1.26771 1.7359,27.19821 0.5697,31.55 -0.846,3.15686 -6.0888,3.18363 -7.2528,0.037 z"
       id="path33" />
    <path
       style="fill:#ffffff;fill-opacity:1"
       d="m 1514.6803,-296.73175 c -3.2783,-1.42711 -4.3997,-3.23547 -4.3997,-7.09483 0,-3.48661 1.1712,-3.66074 6.2909,-0.93532 5.6385,3.00163 10.7339,3.19319 13.1754,0.49534 3.009,-3.32497 1.318,-5.03725 -4.9748,-5.03725 -7.0117,0 -13.1784,-2.90436 -14.1183,-6.64937 -1.1221,-4.47052 0.7836,-9.55269 4.5247,-12.067 3.8958,-2.61826 12.8501,-3.13808 17.1021,-0.99282 3.2996,1.66474 5.4032,7.6053 3.4217,9.66258 -1.2207,1.26737 -1.7533,1.17025 -4.1608,-0.75887 -4.196,-3.36216 -7.224,-4.37347 -10.1624,-3.39403 -1.8406,0.61353 -2.5985,1.56984 -2.5985,3.27863 0,2.18568 0.5381,2.47966 5.7238,3.12743 9.3667,1.17003 14.7762,4.79968 14.7762,9.91454 0,4.41784 -2.4713,8.40012 -6.3571,10.24407 -4.1776,1.98239 -13.9111,2.09278 -18.2432,0.2069 z"
       id="path32" />
    <path
       style="fill:#ffffff;fill-opacity:1"
       d="m 1437.9947,-295.92308 c -0.3928,-0.39274 -0.7141,-11.21406 -0.7141,-24.0474 0,-21.51042 0.1367,-23.34259 1.75,-23.45181 5.4138,-0.36654 6.2144,0.72265 6.2347,8.48202 l 0.015,5.86355 4.5339,-0.67991 c 5.8677,-0.87991 10.2708,0.62438 14.4507,4.93698 3.2707,3.37449 3.3502,3.66492 3.8056,13.90442 0.2558,5.75187 0.1675,11.64374 -0.1962,13.09304 -0.5862,2.33529 -1.0842,2.60001 -4.3777,2.32674 l -3.716,-0.30833 -0.2806,-11.62274 c -0.2331,-9.65355 -0.5831,-11.89642 -2.0657,-13.23812 -2.6421,-2.3911 -7.306,-3.02095 -9.6284,-1.30033 -1.7237,1.27703 -2.0415,3.03279 -2.5,13.8121 l -0.5253,12.34909 -3.0359,0.29739 c -1.6698,0.16357 -3.3573,-0.0239 -3.75,-0.41666 z"
       id="path31" />
    <path
       style="fill:#ffffff;fill-opacity:1"
       d="m 1316.2801,-297.55381 c -9.9472,-6.78986 -9.3541,-25.39434 0.9849,-30.8959 9.2128,-4.9023 19.1355,-0.50116 22.0408,9.77605 2.2842,8.08007 0.8714,9.10529 -12.7752,9.27017 -8.4093,0.1016 -9.1656,0.52031 -7.2855,4.03332 1.4366,2.68434 6.4513,3.24554 13.7909,1.54336 3.5962,-0.83402 6.7515,-1.30348 7.0117,-1.04326 1.2631,1.26313 -1.1773,5.84569 -4.0439,7.59354 -4.7625,2.90378 -15.28,2.75592 -19.7237,-0.27728 z m 13.8502,-21.1839 c 0.8311,-4.37039 -7.5154,-6.30911 -10.2645,-2.38425 -2.2969,3.27931 -0.3327,4.9843 5.3182,4.61631 3.5992,-0.23438 4.6573,-0.71184 4.9463,-2.23206 z"
       id="path30" />
    <path
       style="fill:#ffffff;fill-opacity:1"
       d="m 1278.2806,-296.74954 c -4.8293,-2.63804 -7.4204,-7.48279 -7.784,-14.55427 -0.6043,-11.75015 5.1087,-18 16.4539,-18 h 6.3741 l -0.272,-6.75 -0.272,-6.75 2.9507,-0.33579 c 4.9552,-0.5639 5.5522,1.41079 5.5254,18.27692 -0.029,18.44383 -0.7702,22.04827 -5.4086,26.30887 -3.154,2.89713 -4.164,3.24565 -9.3028,3.20996 -3.1706,-0.022 -6.8897,-0.65458 -8.2647,-1.40569 z m 12.5783,-7.64084 c 1.3964,-1.54291 1.8884,-3.60477 1.8884,-7.91343 0,-4.30866 -0.492,-6.37052 -1.8884,-7.91343 -3.4579,-3.82095 -9.4045,-2.33461 -11.5693,2.89173 -3.7943,9.16032 5.5404,19.59704 11.5693,12.93513 z"
       id="path29" />
    <path
       style="fill:#ffffff;fill-opacity:1"
       d="m 1213.6093,-296.76154 c -3.2404,-1.40955 -5.3287,-4.15596 -5.3287,-7.00788 0,-2.62687 2.6942,-2.86082 7.2952,-0.63349 5.3391,2.5846 9.8636,2.68613 12.0498,0.27039 3.4476,-3.80953 1.5972,-5.17126 -7.0268,-5.17126 -4.9423,0 -5.8731,-0.35486 -8.9182,-3.4 -7.8429,-7.84294 -1.7432,-17.6 11.0028,-17.6 7.899,0 12.5972,2.97922 12.5972,7.9881 0,1.56488 -0.5625,3.04693 -1.25,3.29344 -1.3952,0.50026 -4.5077,-0.89639 -6.5508,-2.93948 -1.4918,-1.49183 -7.951,-1.78557 -10.0476,-0.45692 -0.7416,0.46998 -1.1862,1.70059 -0.9879,2.73469 0.2848,1.48541 1.5579,2.00914 6.0636,2.49443 9.7545,1.05062 13.5057,3.51964 15.081,9.92629 0.8652,3.519 -2.4976,8.72276 -6.7981,10.51963 -4.3209,1.8054 -13.0107,1.79633 -17.1815,-0.0179 z"
       id="path28" />
    <path
       style="fill:#ffffff;fill-opacity:1"
       d="m 1154.2806,-296.01001 c -7.4859,-2.73649 -11.8999,-15.03032 -8.548,-23.80729 6.5801,-17.22965 29.548,-13.05956 29.548,5.36477 0,4.74286 -0.9209,5.11547 -12.691,5.1351 -4.505,0.008 -8.4238,0.39031 -8.7083,0.85068 -0.9611,1.55513 2.307,4.89451 5.3943,5.51198 1.6868,0.33734 5.8496,-0.0358 9.2507,-0.82926 4.4979,-1.04928 6.3726,-1.13742 6.8757,-0.32327 1.093,1.76842 -1.2486,5.81791 -4.2664,7.37852 -2.6844,1.38812 -13.7348,1.85936 -16.855,0.71877 z m 11.0156,-21.81253 c 2.0635,-2.48636 -1.5104,-5.65434 -5.9562,-5.27975 -3.605,0.30375 -4.8937,2.18206 -3.6754,5.35692 0.755,1.96735 7.9828,1.90944 9.6316,-0.0772 z"
       id="path27" />
    <path
       style="fill:#ffffff;fill-opacity:1"
       d="m 1099.5832,-296.50082 c -3.7458,-1.80976 -5.3026,-6.71388 -5.3026,-16.70409 0,-8.31987 -0.1651,-9.09887 -1.9286,-9.09887 -2.4909,0 -5.1407,-2.65587 -4.4487,-4.45906 0.2957,-0.77065 1.8516,-1.85922 3.4575,-2.41904 3.1329,-1.09215 3.1791,-1.22277 2.9384,-8.29911 -0.1322,-3.88451 0.2132,-4.87645 2.0376,-5.85288 1.5915,-0.85172 2.8405,-0.88237 4.533,-0.11121 2.0618,0.93941 2.3283,1.72992 2.2686,6.72901 -0.074,6.18414 0.7969,7.37151 5.4244,7.39698 1.9578,0.0108 3.0349,0.68204 3.6349,2.26531 1.2034,3.17575 -0.4668,4.75 -5.0395,4.75 h -3.8776 v 9.48095 c 0,10.46538 -0.3033,10.03035 7.4914,10.74484 3.4754,0.31857 4.4066,2.73334 1.9871,5.15283 -1.8613,1.86129 -9.6806,2.11311 -13.1759,0.42434 z"
       id="path26" />
    <path
       style="fill:#ffffff;fill-opacity:1"
       d="m 1053.8876,-296.88557 c -1.1867,-3.09235 -0.6275,-20.43426 0.7641,-23.70033 2.1616,-5.07291 5.7097,-7.70643 11.224,-8.33071 6.6561,-0.75355 12.255,1.25571 15.0425,5.39823 2.7169,4.03745 3.9916,14.30879 2.7477,22.14036 -0.8791,5.53526 -0.9098,5.57424 -4.3853,5.57424 h -3.5 l -0.5,-11.70447 c -0.275,-6.43746 -0.9888,-12.1913 -1.5863,-12.78631 -1.8427,-1.83513 -7.7382,-2.2829 -9.8,-0.74431 -1.6127,1.20342 -1.959,3.17201 -2.3873,13.57134 l -0.5009,12.16375 h -3.2558 c -2.0463,0 -3.4812,-0.58759 -3.8627,-1.58179 z"
       id="path25" />
    <path
       style="fill:#ffffff;fill-opacity:1"
       d="m 1001.7473,-296.53005 c -0.2858,-0.74471 -0.3952,-8.53595 -0.2432,-17.31387 l 0.2765,-15.95986 h 3.5 3.5 v 17 17 l -3.2569,0.31387 c -2.0555,0.1981 -3.4485,-0.18556 -3.7764,-1.04014 z"
       id="path24" />
    <path
       style="fill:#ffffff;fill-opacity:1"
       d="m 969.22001,-296.94711 c -9.6348,-5.983 -10.3398,-21.40787 -1.3397,-29.31007 3.1081,-2.72896 4.1495,-3.0466 9.9879,-3.0466 h 6.5181 l -0.2108,-6.50879 c -0.2302,-7.11362 -0.2753,-6.97803 2.6051,-7.84415 4.5713,-1.37458 4.9798,0.11055 5.3131,19.31624 0.2999,17.27657 0.2158,18.213 -1.9892,22.13624 -1.2663,2.25309 -3.5224,4.72742 -5.0135,5.4985 -3.6476,1.88625 -12.6657,1.74911 -15.871,-0.24137 z m 12.4904,-7.27905 c 0.9568,-1.05732 1.9822,-3.73013 2.2785,-5.9396 1.0446,-7.78823 -1.5438,-12.13802 -7.223,-12.13802 -4.5507,0 -6.4853,2.91387 -6.4853,9.76796 0,4.31819 0.4633,5.78627 2.4545,7.77749 2.9444,2.94434 6.5963,3.16087 8.9753,0.53217 z"
       id="path23" />
    <path
       style="fill:#ffffff;fill-opacity:1"
       d="m 929.47681,-297.79216 c -4.8747,-4.10174 -6.1962,-8.14953 -6.1962,-18.97849 0,-10.32568 0.9394,-13.53313 3.9638,-13.53313 4.0465,0 5.0362,2.55956 5.0362,13.02438 0,12.51451 1.0031,14.97562 6.1038,14.97562 5.7992,0 6.8962,-2.33054 6.8962,-14.65108 0,-7.94491 0.3481,-10.55421 1.5714,-11.77749 1.8564,-1.8564 1.6238,-1.82789 4.8635,-0.59618 2.5445,0.9674 2.5651,1.06597 2.5614,12.25 0,12.70455 -1.2596,16.13558 -7.2372,19.78015 -4.9329,3.00762 -13.6945,2.76129 -17.5629,-0.49378 z"
       id="path22" />
    <path
       style="fill:#ffffff;fill-opacity:1"
       d="m 905.04291,-296.37702 c -3.1348,-1.82634 -4.201,-5.28642 -4.7354,-15.36694 l -0.5269,-9.94018 -3.2501,-0.83841 c -4.5573,-1.17569 -4.4307,-4.38993 0.25,-6.34568 3.3453,-1.39771 3.5001,-1.68585 3.5001,-6.51471 0,-5.84074 1.3242,-8.92084 3.8352,-8.92084 3.1034,0 4.1648,2.20322 4.1648,8.64521 v 6.24521 l 4.75,0.30479 c 4.5434,0.29153 4.75,0.43529 4.75,3.30479 0,2.81481 -0.2778,3.03086 -4.5,3.5 l -4.5,0.5 -0.3092,6.5 c -0.1701,3.575 -0.03,8.00182 0.3117,9.83737 0.6195,3.32994 0.6324,3.33662 5.7921,3 4.3644,-0.28473 5.2266,-0.0527 5.526,1.48703 0.6612,3.40055 -2.6579,5.67842 -8.2256,5.64519 -2.8022,-0.0167 -5.877,-0.486 -6.8327,-1.04283 z"
       id="path21" />
    <path
       style="fill:#ffffff;fill-opacity:1"
       d="m 851.68401,-296.32907 c -4.8157,-1.48104 -11.7027,-8.20623 -14.7255,-14.37963 -3.6497,-7.45372 -3.9651,-19.89301 -0.6922,-27.30291 3.9601,-8.96552 11.7229,-14.87811 20.9723,-15.97356 16.0172,-1.89705 27.0419,9.03901 27.0419,26.82435 0,5.68633 -0.3136,6.95451 -1.9342,7.82186 -1.1031,0.59035 -8.8378,1.03518 -18,1.03518 -11.1713,0 -16.0658,0.3405 -16.0658,1.11765 0,0.6147 1.7471,2.8647 3.8824,5 3.519,3.51901 4.3713,3.88235 9.1069,3.88235 2.8735,0 8.2856,-0.73882 12.0269,-1.64182 7.7932,-1.881 9.5996,-1.49912 11.0584,2.33785 1.4783,3.88839 -0.1336,6.77363 -5.2846,9.4591 -3.4562,1.80192 -6.2334,2.2886 -14.29,2.50421 -5.5,0.1472 -11.3934,-0.1609 -13.0965,-0.68467 z m 18.5965,-36.82869 c 0,-2.50874 -4.2366,-6.91632 -7.4147,-7.71398 -1.4219,-0.35687 -3.7818,-0.34855 -5.2442,0.0185 -2.8254,0.70914 -9.3411,6.60285 -9.3411,8.44946 0,0.73333 3.6667,1.1 11,1.1 10.0446,0 11,-0.16104 11,-1.85398 z"
       id="path20" />
    <path
       style="fill:#ffffff;fill-opacity:1"
       d="m 776.63756,-296.24407 c -3.86204,-1.65095 -6.89148,-8.1919 -4.77454,-10.30884 0.32035,-0.32035 2.90785,0.50026 5.75,1.82357 6.58886,3.06779 11.04614,3.15083 13.08236,0.24371 2.23272,-3.18765 0.47955,-4.53244 -5.90881,-4.53244 -4.37012,0 -6.30199,-0.56532 -9.49612,-2.77885 -3.58705,-2.48583 -4.00989,-3.21558 -4.00989,-6.92035 0,-2.27783 0.70232,-5.1442 1.5607,-6.36972 5.14024,-7.33872 21.27026,-7.07141 24.67855,0.40897 2.36331,5.18689 -2.3152,7.44757 -6.8037,3.28759 -2.14901,-1.99172 -7.8622,-2.56294 -10.28394,-1.02821 -0.74162,0.46998 -1.18548,1.70059 -0.98636,2.73469 0.29014,1.50679 1.65013,2.03455 6.84839,2.65755 9.97563,1.19557 14.92209,5.92119 13.59614,12.98912 -1.0442,5.56608 -5.36469,8.15872 -14.10537,8.46437 -3.85242,0.13471 -7.96876,-0.16731 -9.14741,-0.67116 z"
       id="path19" />
    <path
       style="fill:#ffffff;fill-opacity:1"
       d="m 740.6664,-298.53816 c -6.46733,-5.67839 -8.18226,-14.21358 -4.48951,-22.34422 3.04895,-6.71313 10.89728,-11.20847 17.04274,-9.7617 6.57174,1.54713 12.06093,8.72266 12.06093,15.76618 0,4.61898 -2.22863,5.57412 -13.00608,5.57412 -8.4642,0 -10.24146,0.96401 -7.45459,4.04346 2.6318,2.90811 7.60126,3.413 13.94704,1.41701 3.05741,-0.96168 5.81656,-1.49087 6.13144,-1.17599 0.31488,0.31488 0.26722,1.96251 -0.10592,3.6614 -0.94623,4.30814 -4.81864,6.05412 -13.42743,6.05412 -6.4813,0 -7.29506,-0.24601 -10.69862,-3.23438 z m 14.30469,-19.40154 c 1.35782,-3.53843 -2.43704,-6.14649 -7.20297,-4.95031 -2.80323,0.70356 -4.3382,4.43254 -2.34457,5.69576 2.43656,1.54388 8.86155,1.04222 9.54754,-0.74545 z"
       id="path18" />
    <path
       style="fill:#ffffff;fill-opacity:1"
       d="m 705.63569,-296.29605 c -7.36839,-2.9733 -11.06182,-17.25364 -6.60334,-25.53126 2.71378,-5.03839 6.09486,-6.90243 13.25373,-7.30694 l 6.90813,-0.39034 0.29318,-6.6396 0.29317,-6.63959 3.64466,-0.30409 3.64466,-0.30408 0.72721,13.57769 c 1.19213,22.258 0.0747,27.87491 -6.41441,32.24315 -3.5845,2.41295 -11.38651,3.0546 -15.74699,1.29506 z m 10.63053,-7.00005 c 4.41686,-2.36384 4.8755,-14.59067 0.65812,-17.54464 -6.56907,-4.60115 -12.95588,1.72934 -11.19806,11.09931 1.15609,6.16249 5.78234,8.99151 10.53994,6.44533 z"
       id="path17" />
    <path
       style="fill:#ffffff;fill-opacity:1"
       d="m 632.81269,-296.65663 c -1.66916,-1.22052 -1.79152,-2.38788 -1.25093,-11.93402 0.64455,-11.38198 1.92951,-15.16051 6.33368,-18.62483 3.37327,-2.65342 11.44405,-2.82001 16.31404,-0.33675 6.00233,3.06067 7.31105,5.9119 7.8499,17.10222 0.62693,13.0195 0.0892,15.14623 -3.82926,15.14623 -1.65678,0 -3.21688,-0.5625 -3.46689,-1.25 -0.25,-0.6875 -0.61011,-5.932 -0.80024,-11.65445 -0.31236,-9.40133 -0.56543,-10.58239 -2.62484,-12.25 -2.99566,-2.42573 -7.29482,-2.34588 -9.57883,0.17792 -1.49647,1.65358 -1.87581,3.98428 -2.07515,12.75 -0.13416,5.89959 -0.27986,11.06403 -0.32377,11.47653 -0.13299,1.24926 -4.57399,0.84037 -6.54771,-0.60285 z"
       id="path16" />
    <path
       style="fill:#ffffff;fill-opacity:1"
       d="m 600.65416,-296.28922 c -3.9578,-1.59821 -6.77314,-6.92539 -7.19961,-13.6231 -0.49887,-7.83461 1.03396,-12.48885 5.36568,-16.29215 6.6632,-5.85037 17.13582,-4.81937 22.85251,2.24977 2.82935,3.4987 3.10782,4.48407 3.10782,10.99699 0,8.46151 -2.11248,12.91849 -7.4844,15.79083 -3.69505,1.97574 -12.7413,2.45281 -16.642,0.87766 z m 13.70209,-8.59512 c 3.02374,-3.21863 3.35021,-10.5943 0.65126,-14.71342 -1.48771,-2.27053 -2.48942,-2.70602 -6.22432,-2.70602 -3.91779,0 -4.63412,0.35359 -5.97695,2.95034 -2.8264,5.46565 -1.39604,15.3823 2.36365,16.38717 4.13554,1.10532 6.88543,0.53115 9.18636,-1.91807 z"
       id="path15" />
    <path
       style="fill:#ffffff;fill-opacity:1"
       d="m 578.74723,-296.53005 c -0.28577,-0.74471 -0.39518,-8.53595 -0.24313,-17.31387 l 0.27646,-15.95986 h 3.5 3.5 v 17 17 l -3.25688,0.31387 c -2.05555,0.1981 -3.44852,-0.18556 -3.77645,-1.04014 z"
       id="path14" />
    <path
       style="fill:#ffffff;fill-opacity:1"
       d="m 556.58632,-297.71652 c -2.68025,-2.30481 -2.82813,-2.89723 -3.30576,-13.24363 l -0.5,-10.83089 -3,-0.51112 c -2.33955,-0.39859 -3.06761,-1.09426 -3.30712,-3.15996 -0.26146,-2.25509 0.22166,-2.82337 3.25,-3.82281 l 3.55712,-1.17395 v -6.48282 -6.48281 l 3.75,0.31036 3.75,0.31037 0.29495,6.1432 0.29494,6.14319 4.3471,0.65189 c 3.54317,0.53133 4.43159,1.09393 4.80402,3.04216 0.65604,3.43186 -0.252,4.32866 -4.75399,4.69506 l -3.98702,0.3245 -0.29862,7.48822 c -0.43499,10.90795 0.058,12.19679 4.58618,11.98864 5.81838,-0.26745 6.21244,-0.12009 6.21244,2.32314 0,3.5243 -1.91219,4.7 -7.64424,4.7 -4.10134,0 -5.8557,-0.52582 -8.05,-2.41274 z"
       id="path13" />
    <path
       style="fill:#ffffff;fill-opacity:1"
       d="m 496.94723,-295.97045 c -0.83767,-0.83767 -0.85728,-29.0197 -0.0224,-32.13694 0.50245,-1.87594 1.1953,-2.24725 3.73197,-2 2.55252,0.24879 3.22982,0.84531 3.75103,3.30361 0.83458,3.93633 1.04724,27.88157 0.2657,29.91821 -0.6099,1.58938 -6.36987,2.2716 -7.72634,0.91512 z"
       id="path12" />
    <path
       style="fill:#ffffff;fill-opacity:1"
       d="m 470.78056,-296.83728 c -5.20392,-2.58106 -7.5,-7.13564 -7.5,-14.87725 0,-8.23508 1.94269,-12.79868 6.87505,-16.15031 6.18483,-4.20271 16.09119,-2.89689 18.76888,2.47403 1.80727,3.62503 0.65166,5.39645 -3.03784,4.65666 -9.27885,-1.86052 -10.34245,-1.83327 -12.4959,0.32018 -2.95129,2.95129 -2.97266,11.74402 -0.0376,15.47533 2.31005,2.93675 5.01163,3.28913 11.14,1.45302 3.19176,-0.95627 4.10298,-0.9256 4.77435,0.1607 1.21058,1.95875 -0.33403,5.3347 -3.09127,6.7564 -3.27525,1.6888 -11.74703,1.54091 -15.39566,-0.26876 z"
       id="path11" />
    <path
       style="fill:#ffffff;fill-opacity:1"
       d="m 429.87641,-298.35376 c -4.45284,-3.90965 -5.9933,-8.63024 -5.30246,-16.24891 0.57528,-6.34432 2.3253,-9.58393 7.09777,-13.13932 3.76455,-2.80451 13.56551,-2.72409 17.43676,0.14308 5.24749,3.88645 7.17208,7.99083 7.17208,15.29513 0,11.31099 -5.75682,16.99533 -17.2152,16.99845 -4.94625,0.001 -6.18258,-0.40881 -9.18895,-3.04843 z m 14.49081,-5.23182 c 6.00878,-4.6134 5.05383,-15.50807 -1.60314,-18.28953 -4.04749,-1.69115 -6.26284,-0.94061 -8.8419,2.99554 -2.90086,4.42726 -1.28723,14.34758 2.58734,15.9065 2.31328,0.93074 6.24705,0.6241 7.8577,-0.61251 z"
       id="path10" />
    <path
       style="fill:#ffffff;fill-opacity:1"
       d="m 390.78619,-298.59815 c -3.81359,-2.69646 -4.51771,-6.9621 -2.68733,-8.09333 0.45007,-0.27816 3.19475,0.59528 6.0993,1.94098 8.75207,4.05489 14.0824,2.87263 14.0824,-3.12346 0,-1.44089 -0.68795,-1.60737 -4.48913,-1.08636 -8.13261,1.11469 -15.51087,-3.78867 -15.51087,-10.30804 0,-6.65719 5.3105,-11.03542 13.38524,-11.03542 7.81699,0 13.61476,3.61968 13.61476,8.5 0,3.19783 -3.5703,3.41244 -7.34709,0.44162 -1.91866,-1.50922 -3.7555,-1.97611 -6.88486,-1.75 -3.80369,0.27483 -4.26805,0.58038 -4.26805,2.80838 0,2.30339 0.44946,2.54831 5.71518,3.11426 7.21836,0.77581 11.26419,2.44221 13.23607,5.45168 2.57253,3.92618 1.94466,8.03142 -1.86398,12.18737 -2.60057,3.01265 -14.58961,6.95675 -23.08164,0.95232 z"
       id="path9"
       sodipodi:nodetypes="sssssssssssssss" />
    <path
       style="fill:#ffffff;fill-opacity:1"
       d="m 360.66868,-296.28385 c -1.1427,-0.51349 -3.07404,-2.07647 -4.25,-3.57147 -4.42434,-5.62463 -1.67103,-7.78438 5.81711,-4.56307 6.67666,2.87223 10.57136,2.76676 12.60791,-0.34141 0.88509,-1.35082 1.33345,-2.90229 0.99635,-3.44772 -0.33709,-0.54543 -3.32417,-0.97872 -6.63794,-0.96287 -8.87549,0.0425 -13.92155,-3.68431 -13.92155,-10.28174 0,-9.69319 13.90744,-14.7289 23.43567,-8.48575 2.65879,1.7421 4.35396,7.24447 2.73168,8.86675 -0.7133,0.7133 -2.43181,0.21637 -5.52923,-1.59884 -6.54125,-3.83343 -13.29836,-3.30067 -12.47331,0.98345 0.28511,1.48045 1.62794,2.03452 6.34839,2.61939 7.34424,0.90997 11.1137,2.39258 13.02663,5.12367 3.1375,4.47942 0.62318,12.10397 -4.5071,15.12275 -4.25382,2.50305 -13.00837,2.62022 -17.64461,0.53686 z"
       id="path8"
       sodipodi:nodetypes="sssssssssssssss" />
    <path
       style="fill:#ffffff;fill-opacity:1"
       d="m 1032.2806,-295.22789 c -9.1571,-0.72385 -11.2102,-1.81293 -13.9026,-7.37467 -4.2357,-8.74983 -1.8856,-20.09986 4.9939,-24.11789 4.3498,-2.54057 11.1883,-2.5117 14.6352,0.0618 5.8726,4.38454 6.7475,6.65573 7.113,18.46429 0.3518,11.36471 -0.3783,14.0642 -3.7119,13.72497 -0.8952,-0.0911 -5.0026,-0.43241 -9.1276,-0.75849 z m 2.0432,-8.07589 c 1.3958,0 3.1933,-8.06739 2.5331,-11.36862 -1.9904,-9.95189 -12.5763,-8.16496 -12.5763,2.12292 0,2.40745 0.4794,5.27298 1.0654,6.36785 1.1972,2.23703 4.7499,3.97772 6.7664,3.31532 0.7325,-0.24061 1.7276,-0.43747 2.2114,-0.43747 z"
       id="path7" />
    <path
       style="fill:#ffffff;fill-opacity:1"
       d="m 528.59935,-295.24136 c -8.96565,-0.68814 -11.02728,-1.821 -13.74799,-7.55446 -0.86394,-1.82062 -1.5708,-5.84416 -1.5708,-8.94121 0,-11.56788 5.04532,-16.96288 15.25102,-16.30801 10.28077,0.65969 13.74898,6.36867 13.74898,22.63203 0,8.91116 -0.0693,9.18509 -2.5651,10.13398 -1.4108,0.53639 -2.6483,0.90558 -2.75,0.82042 -0.10169,-0.0852 -3.86644,-0.43739 -8.36611,-0.78275 z m 3.00895,-9.05255 c 0.45525,-0.42094 1.23036,-2.50786 1.72246,-4.63761 2.07937,-8.99918 -4.56549,-15.85697 -10.0502,-10.37226 -2.31685,2.31685 -2.77994,11.40054 -0.7182,14.08777 2.14511,2.79589 6.53538,3.24341 9.04594,0.9221 z"
       id="path6" />
    <path
       style="fill:#ffffff;fill-opacity:1"
       d="m 336.18293,-295.21612 c -2.34255,-1.25553 -4.05475,-1.60425 -4.98519,-1.01531 -1.96022,1.24075 -10.59591,1.14117 -15.41718,-0.17778 -5.36152,-1.46675 -12.69228,-9.07581 -14.85285,-15.41672 -2.06522,-6.0611 -2.1215,-16.72943 -0.11925,-22.60572 1.98923,-5.83806 6.62591,-11.38026 11.81883,-14.12701 5.78004,-3.05729 16.42039,-3.01048 22.41667,0.0986 4.83999,2.50955 9.77102,8.71354 11.22889,14.12763 0.87758,3.25909 1.53195,22.44598 1.14959,33.70721 -0.24208,7.12957 -4.3452,9.10422 -11.23951,5.40909 z m -7.51701,-14.21738 c 3.70661,-1.68884 4.86972,-5.67137 4.46894,-15.3018 -0.43781,-10.52041 -2.26268,-13.06848 -9.35935,-13.06848 -6.67992,0 -9.54793,3.29092 -10.22561,11.73342 -0.30567,3.80799 -0.0264,7.97276 0.67775,10.10627 2.1615,6.5494 8.30161,9.32664 14.43827,6.53059 z"
       id="path5" />
    <path
       style="fill:#ffffff;fill-opacity:1"
       d="m 1585.796,-282.93124 c -1.2845,-1.28452 -1.489,-2.73547 -0.9705,-6.8856 l 0.657,-5.25815 -7.5377,-0.38063 c -7.8468,-0.39625 -11.1044,-2.11134 -13.9124,-7.32463 -3.5597,-6.60892 -2.4668,-16.50071 2.4407,-22.09001 7.5002,-8.54227 21.3345,-6.13166 24.9598,4.34921 1.3016,3.76302 1.5698,36.23987 0.316,38.26851 -0.9171,1.48401 -4.1599,1.1143 -5.9529,-0.6787 z m -4.4934,-20.38431 c 4.146,-2.2189 4.7162,-14.10521 0.8446,-17.60892 -1.0408,-0.94195 -3.2906,-1.71264 -4.9995,-1.71264 -4.4261,0 -6.8167,3.47453 -6.8449,9.94847 -0.036,8.31872 4.9812,12.59412 10.9998,9.37309 z"
       id="path4" />
    <path
       style="fill:#ffffff;fill-opacity:1"
       d="m 1480.9667,-282.32035 c -3.9726,-1.19244 -5.6861,-2.86401 -5.6861,-5.54686 0,-3.26891 0.7842,-3.46168 7.5262,-1.85004 9.1807,2.19458 15.4738,0.40043 15.4738,-4.41149 0,-0.52604 -3.3352,-1.12486 -7.4116,-1.33071 -8.4208,-0.42523 -10.3156,-1.58364 -13.5632,-8.29221 -1.6222,-3.35115 -2.0252,-6.1856 -2.0252,-14.2454 0,-10.86171 0.8093,-12.75692 5.1815,-12.13348 2.7556,0.39293 3.6734,4.3162 3.7609,16.07676 0.065,8.74582 1.8151,11.76249 6.8076,11.73469 5.2066,-0.029 5.6698,-1.00592 6.0138,-12.68138 0.4112,-13.96016 0.7201,-15.30711 3.5053,-15.288 5.0097,0.0344 5.2085,0.72659 5.5623,19.3686 0.3005,15.82829 0.1408,17.8905 -1.7087,22.07161 -1.5215,3.43955 -2.9322,4.98478 -5.5493,6.07825 -3.7808,1.57974 -13.3234,1.81962 -17.8873,0.44966 z"
       id="path3" />
    <path
       style="fill:#ffffff;fill-opacity:1"
       d="m 1379.7217,-273.72264 c -1.8218,-1.33162 -1.9626,-3.06416 -2.2905,-28.18127 -0.4031,-30.88075 0.3954,-36.17292 6.5409,-43.35258 5.2927,-6.18325 8.4313,-7.47105 18.3085,-7.51203 7.4597,-0.0309 9.0594,0.29358 13.0702,2.65151 8.351,4.90952 12.9298,14.4165 12.9298,26.84643 0,12.15958 -4.9378,20.83223 -14.5338,25.52715 -4.7147,2.30669 -6.3611,2.60427 -12.2079,2.20655 -3.7171,-0.25286 -7.5458,-0.80199 -8.5083,-1.22031 -1.6088,-0.69922 -1.75,0.15955 -1.75,10.64642 0,7.53877 -0.4069,11.81392 -1.2,12.60699 -1.6454,1.64541 -7.9918,1.51133 -10.3589,-0.21886 z m 29.8597,-36.83611 c 1.6942,-1.35802 3.1664,-3.82542 3.7261,-6.24503 3.1493,-13.61345 -1.7354,-23.5 -11.6109,-23.5 -3.7932,0 -4.6525,0.44323 -7.1151,3.67014 -2.4731,3.24064 -2.8407,4.67427 -3.1411,12.25049 -0.3034,7.65192 -0.099,8.88687 1.8881,11.41318 4.0417,5.13814 11.4751,6.24094 16.2529,2.41122 z"
       id="path2" />
  </g>
</svg>
