<svg xmlns="http://www.w3.org/2000/svg" width="1122.52" height="627.357"><defs><clipPath id="a" clipPathUnits="userSpaceOnUse"><path d="M336.949 231.453h192.25v107.45h-192.25z" clip-rule="evenodd"/></clipPath></defs><path d="M397.25 231.553c-.05.1-.85.2-2.2.2-1.25 0-2.2.05-2.3.15s-.85.15-1.7.2c-.8 0-1.55.05-1.65.1-.1.1-.95.2-1.95.3-.95.15-1.9.3-2.1.35-.15.1-.9.25-1.65.4-1.85.3-2.3.4-2.65.55-.2.1-.75.25-1.2.35-.5.1-1.05.25-1.2.3-.2.1-.8.3-1.4.45-1.8.6-4.05 1.45-5.5 2.1-.75.4-1.4.7-1.45.7-.1 0-3.95 2.2-4.4 2.55-.25.15-.75.45-1.15.65-6.15 3.25-13.15 9.15-16.7 14.05-.15.25-.45.6-.6.8-.5.65-1.65 2.35-1.65 2.4s-.4.7-.9 1.4c-.45.75-1 1.6-1.15 1.95-.15.3-.35.6-.4.6-.1 0-.15.15-.15.3 0 .2-.05.35-.15.35s-.15.1-.15.2-.25.7-.55 1.35c-1.1 2.25-1.65 3.45-1.8 4.15-.05.15-.15.35-.2.45-.1.1-.2.3-.2.45s-.05.45-.15.6c-.2.4-.5 1.3-.65 2-.1.35-.25.75-.3.8-.1.1-.15.5-.2.85-.15 1.05-.6 2.9-.75 3.25-.1.2-.2.7-.2 1.2 0 .45-.15 1.55-.3 2.4-.25 1.25-.35 2.25-.35 4.4 0 1.75-.05 2.8-.15 2.8s-.15.25-.15.55.05.55.15.55.15.4.15.85c0 1.3.35 4.5.5 4.85.15.3.2.5.2 1.65 0 .3.05.55.15.6.05.05.15.35.15.65 0 .25.05.55.1.65.1.1.25.7.35 1.35.15.7.3 1.4.4 1.6.05.25.2.55.25.75.1.15.2.55.25.9.3 1.5 3.9 9.55 4.65 10.45.15.1.25.25.25.3 0 .3 1.45 2.45 3.35 5 2.3 3.1 5.6 6.5 8.85 9.05.95.75 1.8 1.45 1.95 1.6s.3.25.4.25.25.1.4.25c.1.1.55.45 1 .7.45.3 1.3.8 1.85 1.15s1.05.6 1.05.6c.05 0 .55.3 1.1.65.95.55 2.2 1.2 2.95 1.45.4.15 2.5 1.1 2.85 1.3.15.1.4.15.6.15.15 0 .35.1.4.15.05.1.25.2.45.2.25 0 .45.05.5.15s.25.15.45.15.55.1.8.25c.25.1.7.25 1 .3.3.1.6.2.65.25.05.1.35.15.7.15.3 0 .75.15 1 .25.2.15.65.25.95.25.35 0 .85.1 1.15.25.55.2 1.9.35 6.95.7 1.2.1 2.25.2 2.35.25.2.1 10.75.15 11.55 0 .4-.05 1.6-.15 2.65-.25 4.1-.25 6.95-.7 9.55-1.35.2-.05 1-.2 1.7-.25.7-.1 1.55-.25 1.95-.4 1-.35 1.2-.3 1.8.3 1.45 1.55 3.2 1.35 4.1-.35.2-.4.5-.8.65-.95.1-.15.35-.6.55-1 .35-.8 2.5-2.9 2.95-2.9.15 0 .25-.05.25-.15 0-.05.2-.2.45-.3s.9-.5 1.4-1c.5-.45 1-.8 1.1-.8.25 0 1.4-.95 1.4-1.15 0-.1.3-.5.7-.85 1-1.05 1.25-1.3 1.25-1.5 0-.1.05-.2.15-.2s.2-.1.25-.25c.05-.2.2-.4.3-.55.15-.15.35-.5.55-.8.65-1.2.75-1.35.85-1.45.05-.05.2-.35.35-.65.35-.65.5-.95 1.15-2 .9-1.45.85-1.35.4-2.1-.25-.35-.7-.85-.95-1.1-.65-.6-.65-1.15 0-1.75.7-.7.65-1.35-.15-2.2-.95-1.1-1-1.1-1.3-1.1-.15 0-.3-.1-.35-.15-.1-.25-2.3-.45-2.45-.25-.05.1.05.75.25 1.5.5 2.15.55 3.4.2 3.4-.55 0-.8-.5-1.2-2.05-.65-2.6-1.1-3.05-2.8-2.7-.85.2-.85.3.05 1.7 2.1 3.2 2.55 4.7 1.2 3.75-.55-.35-2.2-2.65-3.15-4.3-.5-.85-.7-.95-1.8-.65-1.55.4-1.55.35 1.5 3.4 1.5 1.5 2.75 2.8 2.75 2.85 0 .3-.8-.05-1.65-.75-.55-.45-1.1-.8-1.15-.8-.25 0-1.4-.95-2.75-2.35-1.65-1.7-1.6-1.65-3.6-1.35-1.05.2-2.05.2-2.25.1-.1-.05-.95.15-1.45.4-.15.05-.95.2-1.75.35-.85.1-1.6.25-1.7.35-.15.05-.95.15-1.85.15-.95 0-1.75.05-1.9.15-.1.1-.6.15-1.15.1-.5-.05-1-.05-1.05.05-.05.05-.3.1-.55.05s-.55-.05-.7.05c-.2.2-2.5.4-4.75.4-.6 0-2.1-.1-3.4-.2-1.25-.1-2.9-.25-3.6-.25-.7-.05-1.5-.2-1.75-.3-.25-.15-.85-.3-1.35-.35-.45-.05-.85-.15-.9-.25-.05-.05-.4-.15-.75-.15-.3 0-.65-.05-.7-.15s-.3-.15-.55-.15-.55-.1-.75-.2c-.15-.15-.75-.35-1.25-.55-.55-.15-1.05-.35-1.15-.4-.05-.1-.25-.15-.35-.15-.4 0-2.65-1.2-3.55-1.85-.25-.2-.55-.4-.65-.4s-.2-.05-.2-.15-1.8-1.35-2.6-1.75c-1.2-.65-4.95-4.75-4.95-5.45 0-.1-.05-.2-.15-.2s-.15-.1-.15-.25c0-.1-.4-.8-.9-1.55-1.25-1.85-3.1-5.65-4.05-8.2-.2-.65-.45-1.25-.55-1.3-.05-.1-.1-.35-.1-.65 0-.65-.4-.45-.5.3 0 .3.05.7.15.8s.1.4 0 .8-.1.7 0 .8.15.5.15.9c0 .45.1.85.2.9s.1.35.05.8c-.05.35-.05.7.05.75s.1.3.1.5c-.05.25-.05.4.1.4.1 0 .15.3.15.6s.05.7.15.85.25.65.35 1.15.3 1.2.5 1.55c.15.4.3.75.3.8 0 .1 1.2 2.7 1.45 3.1.05.15.3.55.5.95.15.35.6 1.05.95 1.5s.65.95.65 1.05.15.3.4.5c.2.15.4.4.4.45 0 .1.1.3.3.45.55.5.3 1.2-.4 1.2-.35 0-1.05-.65-1.05-1 0-.15-.15-.3-.3-.35s-.4-.3-.45-.55c-.1-.2-.4-.65-.7-.95-.25-.3-.45-.65-.45-.75s-.15-.3-.25-.4c-.15-.1-.25-.35-.25-.5s-.15-.4-.3-.55c-.2-.15-.35-.4-.35-.5 0-.15-.2-.65-.5-1.15-.25-.5-.45-1.05-.45-1.25 0-.25-.15-.55-.3-.75-.3-.3-.45-.7-.9-2.7-.1-.5-.25-1-.3-1.1-.15-.4-.45-2.55-.45-3.15 0-.3-.05-.6-.15-.65s-.15-.45-.15-.95c.05-2.35 0-3.05-.2-3.15-.15-.1-.15-.35 0-1.15.25-1.3.25-2.2 0-2.2-.1 0-.15-.3-.05-.95.25-2.2.25-3.2.15-3.3-.1-.05-.1-.55-.05-1.35.15-1 .15-1.9 0-3.5-.1-.9.45-6.3.65-6.45.05-.05.15-.3.15-.6 0-.35.1-.75.25-.95.1-.2.2-.45.2-.5-.05-.1.05-.4.2-.7.2-.3.3-.85.3-1.35s.2-1.45.5-2.35c.25-.8.45-1.6.45-1.8 0-.15.1-.35.15-.4.1-.05.2-.2.2-.35 0-.35.6-1.9 1.45-3.75 1.2-2.5 1.6-3.2 2.7-4.85.5-.7 1.1-1.55 1.35-1.95.2-.35.5-.7.6-.75.15-.1.15-.15.05-.15-.05 0-.45.25-.8.5s-.8.55-1.05.65c-.2.15-.5.4-.7.6-.15.2-.35.35-.5.35-.1 0-.4.25-.65.5-.2.3-.85.9-1.4 1.4s-1 .95-1.05 1.05c-.05.15-.5.7-1.55 1.75-.25.3-.6.75-.7 1-.15.25-.35.55-.45.6s-.4.55-.6 1c-.25.5-.5.9-.55.9-.1 0-.45.6-.85 1.4-.35.75-.75 1.6-.9 1.85-.1.25-.2.55-.15.65q.075.225-.15.45c-.1.1-.2.35-.2.5 0 .2-.1.5-.25.7-.1.15-.25.5-.3.7 0 .3-.15.4-.55.45-.6.05-.85-.3-.55-.8.1-.15.2-.45.2-.7 0-.2.05-.4.15-.5.1-.05.15-.3.15-.6 0-.35.1-.6.25-.65s.25-.3.25-.55.05-.55.15-.6c.2-.1.95-1.75 1.05-2.1 0-.1.15-.4.35-.6s.35-.4.35-.5c0-.05.25-.4.5-.8s.5-.8.5-.85c0-.1.05-.2.1-.2.1 0 .2-.15.3-.35.55-1.2 7.5-7.85 8.2-7.85.1 0 .2-.05.2-.15 0-.05.75-.6 1.65-1.2s1.95-1.3 2.3-1.55.85-.6 1.1-.7c.3-.15.8-.55 1.15-.85.4-.25.8-.5.9-.5.15 0 .4-.15.55-.35.15-.15.7-.55 1.2-.8 1.2-.6 1.6-.85 2.1-1.15.2-.15.6-.3.85-.4.3-.05 1.1-.4 1.8-.75.7-.4 1.65-.85 2.05-1 .45-.15.95-.3 1.1-.4s.8-.2 1.45-.3 1.3-.25 1.45-.35c.15-.05.55-.15.85-.15s.55-.05.55-.15.25-.15.5-.15c1.05 0 1.25 0 1.35-.15.05-.1.35-.2.6-.2.3 0 .6-.05.7-.15s.75-.2 1.4-.2c.7 0 1.3-.05 1.35-.15 0-.05.5-.15 1.1-.15.55 0 1.05-.05 1.1-.15.05-.05.45-.15.85-.15.45 0 .85-.05.95-.15.25-.25 7.5-.5 10.2-.35h1.1c.75-.05 3.55.25 3.65.35.05.1.6.15 1.2.15.65 0 1.7.1 2.4.25.65.15 1.5.3 1.9.35s1.15.2 1.6.35c.5.15 1.35.4 1.85.5.55.1 1.2.25 1.45.35s.75.25 1.1.3c.35.1.75.25.85.3.05.1.35.2.55.2.2.05.5.1.65.15.1.05.6.25 1.05.4.4.15.85.35.95.4.05.1.3.15.5.15s.4.05.4.15q0 .15.15.15c.1 0 .6.2 1.1.45.5.2 1.25.55 1.65.7.9.35 2.9 1.45 4.1 2.2.45.3.9.5.95.5.15 0 2 1.3 3.1 2.2.7.5 1.45 1.1 1.7 1.3.25.15.7.55 1.05.9.3.35.6.6.65.6.4 0 4 3.95 4.7 5.2.25.4.6.9.75 1.05.35.3.35.3-.05.75-1.55 1.65.35 4.4 2.25 3.15 1.6-1 1.15-3.9-.6-3.75-.95.05-.95.05-.95-.4 0-.3-.1-.7-.15-.9-.1-.2-.25-.75-.35-1.25-.35-1.55-1.5-3.85-2.45-5-.3-.4-.6-.8-.6-.9 0-.45-6.15-6.15-6.65-6.15-.05 0-.4-.25-.8-.55-.8-.65-2.6-1.7-2.9-1.7-.15 0-.25-.05-.25-.15q0-.15-.15-.15c-.15 0-2.5-1.35-3.4-1.95-.1-.1-.35-.2-.45-.25-.15-.05-.4-.25-.55-.4-.2-.15-.5-.3-.7-.3s-.4-.05-.45-.15-.25-.15-.4-.15-.5-.1-.75-.25c-.45-.2-1.2-.55-2-.85-.2-.1-.75-.3-1.2-.4-.45-.15-1-.35-1.25-.45-.3-.05-.95-.25-1.45-.4-.55-.15-1.3-.35-1.75-.5-.4-.1-.95-.2-1.2-.2-.3 0-.55-.1-.6-.2a.8.8 0 0 0-.45-.15c-.25 0-.7-.1-1.1-.25s-1.1-.3-1.6-.4c-1.25-.2-3.2-.6-3.85-.8-.3-.1-.85-.15-1.2-.15-.65.05-2.15-.15-5.45-.6-.95-.15-2.3-.3-2.9-.3-5.5-.1-9.55-.25-9.95-.35-.3-.05-.55 0-.65.1m58.15 29.4c-.4 0-.55-.25-.55-.9 0-.75.8-1.2 1-.6.3.75.05 1.5-.45 1.5m-25.45 64.15c-.6.55-1.55.65-1.4.15.4-.95.45-1.2.3-1.55-.4-.9.4-1.25 1.25-.6.6.5.55 1.4-.15 2m-1.8-.7c-.4 0-.6-.75-.3-.95.35-.2.45-.2.65.15.2.4.05.8-.35.8m67.35-68.7c-.4.45-.55 5.8-.15 7.1 1.05 3.7 5.9 2.6 5.9-1.35 0-2.15-1.25-3.45-3.25-3.35-.55.05-.95 0-.95-.1v-1.05c.05-1.45-.75-2.05-1.55-1.25m3.65 4.65c.9 1.45-.2 3.45-1.45 2.8-.7-.4-.95-2.35-.4-3 .5-.55 1.45-.4 1.85.2m7.55-2.7c.25.25.35.25.6.1.55-.25 1.65-.2 1.65.1 0 .15-.2.25-.7.25-1.5 0-2.7 3.05-1.55 4.05.55.5 1.05-.1 1-1.3-.05-1.25.15-1.7.75-1.6.4.05.45.05.45 1.35.1 1.7 1.35 2.65 1.35 1 0-.4.1-.4.6.2.45.45.6.55 1.25.55 1.35 0 2.2-.9 1.35-1.4-.25-.2-.25-.2.2-.65 1.4-1.45-1.2-3.1-2.85-1.8-.55.4-.55.4-.65-.45-.2-1.4-1.8-2.1-3.25-1.4-.5.25-.6.65-.2 1m4.95 1.7c.2-.2 1.1-.15 1.1.1 0 .1-.35.2-.8.25-.5.05-.9.2-1.2.55-.5.45-.5.45-.5-.4 0-.8 0-.85.3-.6.15.15.4.3.6.3.15 0 .4-.1.5-.2m1.1 1.7c-.4.3-.95.25-1-.05-.05-.15.1-.2.6-.2.65 0 .7.05.4.25m6.15-3.45c0 .45 0 .5-.65.5-.55 0-.75.1-1.2.55-1.8 1.8.65 4.85 2.55 3.15.6-.55.9-4.5.45-5.1-.3-.3-.75-.3-.95.1-.1.15-.2.5-.2.8m-.05 2.55c0 1-.4 1.3-.95.75-.55-.6-.2-1.75.5-1.65.4.05.45.1.45.9m-144.5-2.05c-2 0-3.2 1.2-3.2 3.25 0 3.35 3.6 4.75 5.35 2.05.6-1 .7-4.95.1-5.4-.4-.3-.9-.3-1-.1-.1.1-.65.2-1.25.2m.45 4.55c-.85.85-2-.1-1.85-1.55.2-1.15 1.35-1.75 1.85-.95.3.5.3 2.2 0 2.5m22.75-4.6c-2.45.15-2.5 4.05-.05 4.05 1.3 0 1.75-.7 1.75-2.55 0-1.25-.15-1.65-.6-1.6-.15 0-.65.05-1.1.1m.4 1.35c.45.45.05 1.65-.55 1.55-.3-.05-.5-1-.3-1.5.1-.3.6-.3.85-.05m-19.8-1.15c-.5.3-.7.65-.55 1 .15.3.85.4 1.05.1.05-.05.35-.15.65-.15.75 0 .65.4-.1.45-1.75.15-2.25 1.75-.8 2.5 1.25.7 3.2-.5 2.1-1.25-.25-.2-.25-.25.2-.55 1.45-1.2-.85-3.05-2.55-2.1m1.7 2.8c-.4.3-.85.25-.95-.05-.05-.15.15-.2.65-.2.65 0 .65 0 .3.25m1.95-2.65c-.5.35-.45 1 .1 1.1.2.05.45-.05.55-.1.1-.1.4-.2.7-.2.85 0 .55.4-.35.5-1.7.2-2.05 2.05-.45 2.55 1.3.45 2.9-.5 2.1-1.2-.4-.35-.4-.35 0-.65.6-.5.6-1.4-.05-1.95-.6-.5-2.05-.5-2.6-.05m.8 2.6c-.05-.15.15-.2.65-.2.65 0 .65.05.35.25-.35.3-.9.25-1-.05m4.8 1.25c1.65 0 2.6-1.7 1.85-3.2-.6-1.1-2.25-1.35-3.1-.5-1.35 1.35-.5 3.7 1.25 3.7m.05-1.1c-.65 0-1.05-1.25-.5-1.75.25-.3 1-.25 1.15.05.3.85 0 1.7-.65 1.7m5.1 1.05c1.15-.45.95-1.35-.25-1.15-.8.1-1.05-.1-1.05-.85 0-.9.15-1 1-.95.6 0 .85-.05.95-.25.5-.8-1.6-1.3-2.45-.55-1.8 1.5-.3 4.65 1.8 3.75m1.35-3.85c-.3.75-.1 3.75.25 3.9.8.45 1.4-2.7.75-3.85-.2-.4-.85-.4-1-.05m6.45 1.55c.05 1 .05 1.05-.45 1.3-.25.15-.5.3-.5.35 0 .25.4.7.6.7s.45.55.35.75c-.2.35.2.9.65.85.4-.05.45-.15.5-.8.1-.55.15-.7.4-.75.9-.2.95-.75.15-1.1s-.85-1.95-.05-2.05c.3 0 .6-.15.7-.3.5-.75-1.3-1.1-2-.4-.3.35-.35.55-.35 1.45m3.55 2.4c.8-.3.75-4.2-.05-4.2-.25 0-.45.1-.55.3-.55 1.05-.1 4.15.6 3.9m1.35-.85c1.2 1.55 3.65.7 3.65-1.3 0-1.65-2-2.75-3.25-1.75-.75.6-.95 2.35-.4 3.05m2.15-2.05c.55.5.15 1.75-.5 1.75-.6 0-1.05-1.4-.6-1.85.15-.15.9-.1 1.1.1m2.1-1.2c-.7.65.15 3.65 1.1 3.9 1.65.45 2.5-.35 2.45-2.45-.1-2.2-1-2.4-1.05-.2-.05.95-.1 1.35-.3 1.5-.75.55-1.2 0-1.2-1.4.05-1.35-.4-1.95-1-1.35m9.45 4c.55-.05.55-.05.6.75s.05.85.5.85c.8 0 .85-4.45.1-5.2-.65-.65-1.75-.75-2.45-.15-1.55 1.3-.7 4 1.25 3.75m.15-1.15c-.7.2-1.1-.45-.85-1.4.15-.5.7-.6 1.05-.25.4.4.25 1.55-.2 1.65m5 1c1.5-1 1.15-2.35-.55-2.35-1.4 0-1.3-.4.05-.45 1.35 0 1.35 0 1.35-.35 0-.9-2.1-1.15-3-.4-1.9 1.7.1 4.95 2.15 3.55m-.6-1c-.25.3-.35.3-.7 0-.3-.2-.3-.25.3-.25.55 0 .6.05.4.25m2.35-2.6c-.55.45-.5.95.05 1.05.2.05.45-.05.55-.1.3-.3 1.25-.25 1.25.05 0 .15-.2.25-.6.25-2.05 0-2.3 2.25-.25 2.65 1.2.25 2.45-.85 1.65-1.45-.35-.2-.35-.2.05-.65 1.4-1.35-1.1-3.05-2.7-1.8m1.8 2.6c-.15.2-.4.25-.65.2-.65-.2-.5-.45.25-.45.6 0 .65.05.4.25m8.15 4.1c1.05 0 2.65-1.1 2.65-1.8 0-.15.05-.3.15-.35.1-.1.15-.5.15-.9 0-1.3-.25-1.45-2.4-1.45-1.8 0-1.8 0-1.4-.4.4-.45 1.45-.5 2.75-.15a.82.82 0 0 0 1.05-.8c0-1.25-3.1-1.7-4.55-.7-2.75 1.9-1.6 6.55 1.6 6.55m.95-2.6c.1.2-.5.85-.8.85-.4 0-1.2-.5-1.2-.75s1.85-.35 2-.1m4.1-4.25c-.45.35-.65.85-.65 1.85 0 .8-.05.95-.3 1.05-.2.1-.3.25-.3.5 0 .3.1.45.3.5.25.05.3.25.3.7 0 .65.25.95.75.95.4 0 .5-.2.6-1.1 0-.3.15-.45.4-.45.8-.15.85-1 0-1.15-.7-.2-.65-1.9.05-2 .65-.05.95-.45.65-.8-.25-.3-1.45-.35-1.8-.05m3.05 3.85c.25-.25.35-.5.35-1.6.05-1.2.1-1.25.45-1.3.65-.1.8.2.8 1.55 0 1.05.05 1.25.35 1.4.75.5 1.15-.75.85-2.55a1.854 1.854 0 0 0-3.2-1c-1.05 1-.65 4.4.4 3.5m4.4-3.85c-1.7.95-1 3.95.9 3.95.65 0 .65 0 .7.65.05.8.4 1.15.9.85.55-.35.4-4.55-.2-5.2-.55-.5-1.6-.65-2.3-.25m1.15 2.75c-.55.15-.9-.15-.9-.75 0-1.4 1.2-1.55 1.25-.2.05.8.05.85-.35.95m3.3 1.2c.35-.2.55-3.05.25-3.8-.2-.45-.8-.5-1.05-.05-.65 1.2-.05 4.3.8 3.85m5.85-.4c1.75 1.3 4.1-1.35 2.95-3.45-.5-.95-1.1-.3-1.1 1.2 0 1.25-.3 1.7-1.05 1.45-.2-.1-.25-.35-.25-1.35 0-.75-.05-1.3-.15-1.45-.3-.25-.9-.2-1 .1-.4.95-.05 3.05.6 3.5m4.45-3.35c-.25.35-.35.65-.35 1.45 0 .95-.05 1.05-.4 1.2-.5.25-.55.95-.1 1.05.35.1.45.35.55 1.2.1.8 1 .55 1.1-.35.05-.65.1-.7.6-.85.8-.2.65-.85-.35-1.15-.55-.15-.3-1.75.25-1.8.55-.1.8-.4.7-.85-.2-.55-1.55-.45-2 .1m8.4 3.4c1.3-1.2.95-2.2-.75-2.2-1 0-1.1-.05-.9-.25.15-.2.4-.25 1.15-.2 1.15.05 1.6-.3.95-.85-.7-.6-2.15-.45-2.85.25-1.8 1.8.55 4.95 2.4 3.25m-.8-.85c-.4.3-.45.3-.7 0-.2-.2-.15-.25.4-.25.6 0 .6.05.3.25m5.5-2.6c-.65.55-.5 1.15.25 1 1.3-.25 1.75-.3 1.7-.05-.05.1-.4.25-.85.3-1.75.2-2.1 2-.5 2.55 1.45.5 3.05-.6 2-1.35-.25-.2-.3-.25-.1-.35.45-.25.75-.95.65-1.4-.25-1.05-2.2-1.45-3.15-.7m1.9 2.6c-.35.3-.9.25-1-.05-.05-.15.15-.2.6-.2.65 0 .7.05.4.25m6.7 1.2c.7 0 .7 0 .65.45-.15.9.85 1.65 1.15.9.15-.4.1-4-.05-4.45-.5-1.25-2.05-1.5-3.05-.5-1.25 1.25-.4 3.6 1.3 3.6m.55-2.2c.1 1.05-.4 1.4-1 .85-.55-.6-.15-1.75.55-1.65.4.05.4.1.45.8m4.1 2.35c.95 0 2-1.55 1.6-2.35-.2-.3-.35-.35-1.25-.35-.8 0-1.05-.05-1-.2s.45-.2 1.1-.2c.8 0 1.05-.1 1.2-.3.5-.8-1.95-1.3-2.85-.6-1.65 1.3-.85 4 1.2 4m.3-1.45c0 .3-.55.35-.8.1-.2-.2-.2-.25.25-.25.3 0 .55.05.55.15m12.45-2.5c-.35 1.4 0 5.35.45 5.35s.5-.05.55-.75c.05-.75.05-.75.7-.75 1.4 0 2.05-.85 2.05-2.6 0-2.2-1.15-2.4-1.3-.2-.15 2.45-1.3 2.45-1.45 0-.05-1.45-.75-2.15-1-1.05m12.75 3.8c.65.35.8-.05.75-2.15-.05-1.95-.35-2.55-.95-1.9-.3.25-.15 3.9.2 4.05m6.7-3.8c-1.2 1-1.05 4.45.2 3.8.35-.2.5-.8.5-1.8-.05-1.25-.05-1.25.5-1.2s.55.05.6 1.3c.05 2.6 1.3 2.6 1.3 0 0-2.2-1.65-3.3-3.1-2.1m3.8 2.1c.25 2.05 2.65 2.55 3.55.75.55-1.2.2-1.6-1.25-1.6-.6 0-1.1-.1-1.1-.15 0-.25.75-.4 1.45-.3.75.15 1.15 0 1.15-.35 0-.75-1.95-1.1-2.9-.6-.65.35-1 1.25-.9 2.25m2.35.4c0 .25-.5.35-.8.2-.45-.25-.4-.35.25-.35.3 0 .55.05.55.15m-61.1-.15c.7 0 .7 0 .7-.7 0-.75 0-.75-.7-.75-.75 0-.75 0-.75.75 0 .7 0 .7.75.7m7.55 0c.7 0 .7 0 .7-.7 0-.75 0-.75-.7-.75-.75 0-.75 0-.75.75 0 .7 0 .7.75.7m-79.7 3.2c.15 0 .6-.45.6-.6 0-.5-.75-.8-1.1-.45-.4.35-.05 1.05.5 1.05m8.85-1c-.3.3-.3.45.1.8.55.5 1.25-.25.8-.85-.25-.3-.55-.25-.9.05m48.65.05c-.25.3-.25.35 0 .65.4.4.65.4.95-.05.5-.65-.35-1.2-.95-.6m62.75-.1c-.45.55.2 1.35.7.9.3-.25.35-.65.05-.9-.25-.3-.5-.25-.75 0m-6.5 1.4c-3.45.5-5.4 2.45-4.55 4.55.55 1.35 1.8 1.65 3.4.9 1.75-.8 5.55-.85 6.25-.1.35.35.6 1.35.6 2.25 0 .7-.05.9-.2.8-3.7-2.35-8.8 1.1-9.9 6.65-.4 1.75-.55 10.95-.2 11.8.45 1.15 1.85 1.75 2.9 1.2 1.35-.65 1.35-.55 1.45-6.95.1-6 .1-5.9 1-7.25 1.05-1.55 2.75-1.55 4.4 0 .55.5.55.5.55 6.35 0 4.3.05 6.05.2 6.45.7 2 2.8 2.3 3.95.55.5-.75.45-20.45-.05-22.15-.85-2.9-2.2-4.3-4.75-4.85-.95-.25-4.05-.35-5.05-.2m-61.9.2c-.7.2-2.65 1.75-3.1 2.5-1.45 2.25-1.5 2.4-.65 2.95.65.45 1.15.35 1.15-.25 0-.3 1.5-2.5 1.95-2.95 1.3-1.1 3.7-1.15 5.3 0 .6.4.9.35 1.2-.2.4-.85.4-.85-1.35-1.8-.85-.5-3.25-.65-4.5-.25m7.55 3.35c-1.45-.05-2.35.2-1.65.4.1.05.15.15.15.25s.25.45.45.85c.7 1 .7 1.1.1 2.25-.65 1.4-.7 1.75-.1 1.6.25-.05.75-.15 1.1-.25.35-.05.85-.15 1.05-.25.45-.1 1.45.45 2.3 1.25.65.6.9.25 1.15-1.65.1-.65.4-.9 1.8-1.65.85-.45 1.35-1.05.8-1.05-.9 0-2.55-.9-2.7-1.55-.6-2.2-.7-2.25-1.5-1.5-1.45 1.45-1.2 1.35-2.95 1.3m-7.75 5.3c0 .1-.15.45-.3.8-.75 1.75-1.05 7.2-.5 9.75.55 2.3 1.2 4.75 1.55 5.35.1.3.2.65.2.75.05.15.15.5.35.8.15.3.3.6.3.7 0 .55 2.75 4.3 3.15 4.3.35 0 1-1.45.7-1.65-.35-.25-1.9-2.65-1.9-2.9 0-.1-.1-.3-.2-.4-.15-.1-.35-.5-.45-.85-.1-.4-.35-1-.5-1.35s-.4-1.1-.55-1.65c-.15-.6-.35-1.3-.4-1.6-.4-1.35-.85-5.95-.7-7.4.25-3.15.9-4.5 2.45-5 .8-.25.95-.55.75-1.35-.1-.5-.6-.5-1.7-.15-.65.25-2.25 1.55-2.25 1.85m-64.15-.45c-2.05 1-3.75 3.25-4.3 5.75-.25 1.15-.35 11.65-.1 12.5.5 1.55 2.3 2.15 3.5 1.05.8-.7.8-.8.8-6.7 0-7.45.35-8.3 3-8.35 2.8 0 3.1.8 3.1 8.25 0 5.85.05 6.1.85 6.85 1.35 1.2 3.35.25 3.6-1.8.2-1.65-.05-11.15-.3-12.05-.95-3.15-2.3-4.7-5.15-5.85-1.05-.4-3.75-.2-5 .35m14.15 14.7c.8 2.4 3.55 5 5.4 5 .2 0 .45.05.55.15.25.15 3.15-.1 3.35-.3.05-.1.25-.15.35-.15 1.3 0 4.05-3.45 4.05-5 0-2.65-3.05-3.35-4.15-1-.6 1.25-1 1.5-2.55 1.5-3 0-3.25-.6-3.25-8.2 0-5.95-.05-6.25-.95-6.9-.5-.35-1.6-.45-2.2-.15-1.35.65-1.8 11.35-.6 15.05m17 3.9c.8 1.9 3.6 1.5 4-.55.15-.8.1-16.35-.05-16.95-.5-1.7-2.3-2.2-3.55-1-.7.7-1.05 16.95-.4 18.5m13.35-18.95c-.05.05-.25.15-.4.15-1.55 0-4.4 3.25-5.15 5.85-.1.35-.25.9-.35 1.2-.25.75-.25 4.9 0 5.95.9 3.7 2.9 6.1 5.8 7.05.7.2 3.5.25 3.6 0 .05-.05.25-.15.45-.15 2.25 0 4.65-4.4 4.7-8.65.05-3.75.05-3.7-5.85-3.7-2.4 0-4.35-.05-4.35-.1 0-.25.75-1.65 1.05-1.95 1.2-1.15 4.25-1.3 6-.25 2.55 1.45 4.5-1.85 2.3-3.95-1.4-1.4-7.2-2.45-7.8-1.45m-1.25 13.45c-.05-.2-.15-.5-.2-.65-.1-.25.1-.3 2.85-.3 3 0 3 0 2.9.55-.55 2.95-4.95 3.25-5.55.4m41.3-7.55c1.1 1.1 2 1.1 3.35-.15 1.9-1.75 5.8-1.35 5.8.6 0 .6-.3 1-.7 1-.1 0-.3.1-.35.2-.05.05-.8.15-1.7.15-6.6 0-9.6 6.75-4.9 11.2 3.35 3.15 10.95 1.15 10.95-2.9 0-2.4-2-3.15-3.75-1.45-1.95 2-5.1 1.5-4.95-.75.05-.95.75-1.25 3-1.3 2.35 0 3.9-.55 4.95-1.75 3.35-3.75 2.05-9.1-2.55-10.45-.4-.1-.9-.25-1.2-.35-.65-.2-3.55-.15-4.35.1-3.45 1-5.35 4.1-3.6 5.85m17.05-5.8c-1 .8-1 .35-1 9.8 0 8.3.05 8.55.35 9.15 1.05 1.85 3.3 1.5 3.9-.65.35-1.1.4-15.55.05-16.75-.4-1.6-2.15-2.4-3.3-1.55m8.85 4.05c-.15.4-.2 2.3-.2 5.85 0 5.25 0 5.25-.95 5.25-.8 0-1.05.05-1.45.4-1.85 1.55-.9 4.4 1.45 4.4.95 0 .95 0 .95 3.35 0 4.15.3 4.85 2.2 4.85 1.7 0 2.15-1.05 2.15-5.1 0-3.1 0-3.1 1.55-3.1 2.85 0 4.05-2.4 2.15-4.3-.5-.5-.5-.5-2.1-.5s-1.6 0-1.6-4.95c0-5.9-.05-5.8 1.8-5.6 2 .2 2.35.1 3.15-1.05 1.75-2.55-2.4-5.05-5.9-3.5-1.5.65-2.55 1.95-3.2 4m-40.4-2.25c-.1.15.65 1.75.9 1.95.15.1 1.4 2.65 1.4 2.85 0 .1.15.4.3.7.8 1.45 1.05 7 .35 8.3-.4.8-.55.8-.35 0 .1-.5-.1-3.1-.35-3.7-.05-.1-.15-.75-.3-1.4-.65-3.9-3.95-6.7-5.25-4.45-.45.85-.4 4.85.15 6.1.05.2.2.7.3 1.15 2.35 9.25 9.7 5.05 7.7-4.4-.55-2.55-2.4-6.7-3.1-7-.55-.2-1.65-.3-1.75-.1m6.35 1.2c-.75.5-.8.6-.1 1.85.2.35.4.8.4 1 0 .15.05.5.15.75.35.85.45 1.05.6 1.7.3 1.1.5 2.05.65 3.2.1.6.3 1.55.4 2.15.25 1.4.25 7.4-.05 8.55-.75 3.45-1.4 4.9-2.65 6.2-1.2 1.25-2.75 1.8-3.9 1.4-.7-.25-.85-.1-.85.75 0 .95.2 1.05 2.05.95a6.2 6.2 0 0 0 3.75-1.6c.55-.55 1.95-2.4 1.95-2.65 0-.1.1-.45.3-.8.15-.35.3-.75.3-.85 0-.15.1-.35.15-.45.1-.05.25-.6.35-1.2.1-.55.25-1.25.35-1.55.45-1.45.3-8.05-.25-10.65-.15-.65-.25-1.35-.25-1.6 0-.2-.15-.9-.35-1.5-.2-.65-.45-1.65-.65-2.25-.2-.65-.4-1.25-.45-1.4-.1-.15-.15-.4-.15-.55s-.1-.35-.15-.5c-.7-1.5-.65-1.5-1.6-.95m-18.15 5.6c-2.7 1.45-3.25 3.55-1.45 5.75 1.75 2.15 6.4 1.55 5.85-.7-.3-1.15-.5-2.2-.75-3.7-.3-1.75-1.8-2.35-3.65-1.35m2.2 8.6c0 .25.5 1.6.85 2.45.25.45.45 1.05.55 1.25.05.25.25.6.4.85s.3.55.3.65c0 .7.9.95 1.4.4.45-.5.45-.65-.1-1.8-.3-.5-.5-1.05-.5-1.15s-.1-.45-.3-.75c-.15-.25-.35-.85-.5-1.25-.3-1.1-.7-1.35-1.7-.95-.2.1-.4.2-.4.3m5.2 6.1c-.15.3-.3.75-.35.9-.45 1.1-.45 1.15-1.55 1.5-2.2.75-2.2.75-.8 1.65 1.35.9 1.35.85 1.45 2.35.15 1.55.1 1.55 1.5.6 1.1-.75 2.45-.9 3.15-.4.1.1.35.2.6.25.75.15.75-.05 0-2.1-.2-.65-.2-.65.7-1.85 1.1-1.5 1.15-1.45-.7-1.45-1.6 0-1.6 0-2.55-1-1.2-1.25-1.1-1.25-1.45-.45m-34.75 2.3c0 2.6 2.35 3.7 3.8 1.8 1.55-2.05-.55-5.35-2.6-4.1-.85.55-1.2 1.15-1.2 2.3m70.9-2.25c-1.9 1.15-1.5 4.25.65 4.95.7.25 1.85-.3 2.15-1.05.45-1.2.5-1.5.3-2.2-.4-1.7-1.85-2.5-3.1-1.7m-48 21.1c1 1 1.7.6 1.7-1 0-1.25-.7-1.9-1.5-1.45-.85.45-.95 1.75-.2 2.45" clip-path="url(#a)" style="fill:#000;fill-opacity:1;fill-rule:evenodd;stroke:none" transform="matrix(5.83888 0 0 -5.83888 -1967.412 1978.784)"/></svg>