<?xml version="1.0" encoding="UTF-8" standalone="no"?>
<svg
   width="703.21576"
   height="627.47107"
   version="1.1"
   id="svg2"
   xmlns="http://www.w3.org/2000/svg"
   xmlns:svg="http://www.w3.org/2000/svg">
  <defs
     id="defs1">
    <clipPath
       id="a"
       clipPathUnits="userSpaceOnUse">
      <path
         d="m 336.949,231.453 h 192.25 v 107.45 h -192.25 z"
         clip-rule="evenodd"
         id="path1" />
    </clipPath>
  </defs>
  <path
     style="fill:#ffffff;fill-opacity:1;fill-rule:evenodd;stroke:none;stroke-width:5.83888"
     d="m 352.08446,626.77264 c -0.29194,-0.58389 -4.96305,-1.16778 -12.84554,-1.16778 -7.2986,0 -12.84553,-0.29194 -13.42942,-0.87583 -0.58389,-0.58389 -4.96305,-0.87583 -9.9261,-1.16777 -4.6711,0 -9.05026,-0.29195 -9.63415,-0.58389 -0.58389,-0.58389 -5.54693,-1.16778 -11.38581,-1.75167 -5.54694,-0.87583 -11.09388,-1.75166 -12.26165,-2.0436 -0.87583,-0.58389 -5.25499,-1.45972 -9.63415,-2.33556 -10.80193,-1.75166 -13.42943,-2.33555 -15.47304,-3.21138 -1.16777,-0.58389 -4.37916,-1.45972 -7.00665,-2.04361 -2.91944,-0.58389 -6.13083,-1.45972 -7.00666,-1.75166 -1.16777,-0.58389 -4.6711,-1.75167 -8.17443,-2.6275 -10.50998,-3.50333 -23.64746,-8.46637 -32.11384,-12.26165 -4.37916,-2.33555 -8.17443,-4.08721 -8.46638,-4.08721 -0.58388,0 -23.06357,-12.84554 -25.69107,-14.88915 -1.45972,-0.87583 -4.37916,-2.62749 -6.71471,-3.79527 -35.90911,-18.97636 -76.78127,-53.42575 -97.5093,-82.03626 -0.87583,-1.45972 -2.62749,-3.50333 -3.50332,-4.67111 -2.91944,-3.79527 -9.63416,-13.72136 -9.63416,-14.01331 0,-0.29194 -2.33555,-4.08721 -5.25499,-8.17443 -2.62749,-4.37916 -5.83888,-9.34221 -6.71471,-11.38582 -0.87583,-1.75166 -2.04361,-3.50332 -2.33555,-3.50332 -0.58389,0 -0.87583,-0.87584 -0.87583,-1.75167 0,-1.16777 -0.29195,-2.04361 -0.87584,-2.04361 -0.58388,0 -0.87583,-0.58388 -0.87583,-1.16777 0,-0.58389 -1.45972,-4.08722 -3.21138,-7.88249 -6.42277,-13.13748 -9.63415,-20.14414 -10.50999,-24.23135 -0.29194,-0.87583 -0.87583,-2.04361 -1.16777,-2.6275 -0.58389,-0.58389 -1.16778,-1.75166 -1.16778,-2.62749 0,-0.87584 -0.29194,-2.6275 -0.87583,-3.50333 -1.16778,-2.33555 -2.91944,-7.59055 -3.79527,-11.67776 -0.58389,-2.04361 -1.45972,-4.37916 -1.75167,-4.67111 -0.58388,-0.58388 -0.87583,-2.91944 -1.16777,-4.96304 -0.87583,-6.13083 -3.50333,-16.93276 -4.37916,-18.97636 -0.58389,-1.16778 -1.16778,-4.08722 -1.16778,-7.00666 0,-2.6275 -0.87583,-9.05026 -1.75166,-14.01331 -1.45972,-7.2986 -2.04361,-13.13748 -2.04361,-25.69107 0,-10.21804 -0.29194,-16.34887 -0.87583,-16.34887 C 0.29194,299.21147 0,297.75175 0,296.00009 c 0,-1.75167 0.29194,-3.21139 0.87583,-3.21139 0.58389,0 0.87583,-2.33555 0.87583,-4.96304 0,-7.59055 2.04361,-26.27496 2.91944,-28.31857 0.87583,-1.75166 1.16778,-2.91944 1.16778,-9.63415 0,-1.75167 0.29194,-3.21139 0.87583,-3.50333 0.29194,-0.29194 0.87583,-2.04361 0.87583,-3.79527 0,-1.45972 0.29194,-3.21139 0.58389,-3.79527 0.58389,-0.58389 1.45972,-4.08722 2.04361,-7.88249 0.87583,-4.08722 1.75166,-8.17443 2.33555,-9.34221 0.29194,-1.45972 1.16777,-3.21138 1.45972,-4.37916 0.58389,-0.87583 1.16777,-3.21138 1.45972,-5.25499 1.75166,-8.75832 22.77163,-55.7613 27.15079,-61.0163 0.87583,-0.58389 1.45972,-1.45972 1.45972,-1.75166 0,-1.75167 8.46638,-14.30526 19.56025,-29.1944 13.42942,-18.10053 32.697726,-37.952721 51.67409,-52.841865 5.54693,-4.379161 10.50998,-8.466371 11.38581,-9.342211 0.87583,-0.87583 1.75167,-1.45972 2.33555,-1.45972 0.58389,0 1.45972,-0.58388 2.33556,-1.45972 0.58388,-0.58388 3.21138,-2.62749 5.83888,-4.08721 2.62749,-1.75167 7.59054,-4.67111 10.80192,-6.71471 3.21139,-2.04361 6.13083,-3.50333 6.13083,-3.50333 0.29194,0 3.21138,-1.75167 6.42277,-3.79527 5.54693,-3.21139 12.84553,-7.00666 17.22469,-8.46638 2.33555,-0.87583 14.5972,-6.42277 16.64081,-7.59054 0.87583,-0.58389 2.33555,-0.87584 3.50333,-0.87584 0.87583,0 2.04361,-0.58388 2.33555,-0.87583 0.29194,-0.58389 1.45972,-1.16777 2.6275,-1.16777 1.45972,0 2.62749,-0.29195 2.91944,-0.87584 0.29194,-0.58388 1.45972,-0.87583 2.62749,-0.87583 1.16778,0 3.21139,-0.58389 4.67111,-1.45972 1.45972,-0.58389 4.08721,-1.45972 5.83888,-1.75166 1.75166,-0.58389 3.50332,-1.16778 3.79527,-1.45972 0.29194,-0.58389 2.04361,-0.87583 4.08721,-0.87583 1.75167,0 4.37916,-0.87584 5.83888,-1.45972 1.16778,-0.87584 3.79528,-1.45972 5.54694,-1.45972 2.04361,0 4.96305,-0.58389 6.71471,-1.45972 3.21139,-1.16778 11.09387,-2.04361 40.58022,-4.08722 7.00665,-0.58389 13.13748,-1.16778002 13.72137,-1.45972002 1.16777,-0.58389 62.76796,-0.87583 67.43906,0 2.33555,0.29194 9.34221,0.87583002 15.47303,1.45972002 23.93941,1.45972 40.58022,4.08722 55.76131,7.88249 1.16777,0.29194 5.83888,1.16777 9.92609,1.45972 4.08722,0.58389 9.05027,1.45972 11.38582,2.33555 5.83888,2.04361 7.00665,1.75166 10.50998,-1.75166 8.46638,-9.05027 18.68442,-7.88249 23.93941,2.0436 1.16778,2.33556 2.91944,4.67111 3.79527,5.54694 0.58389,0.87583 2.04361,3.50333 3.21139,5.83888 2.0436,4.6711 14.5972,16.93275 17.22469,16.93275 0.87583,0 1.45972,0.29195 1.45972,0.87583 0,0.29195 1.16778,1.16778 2.6275,1.75167 1.45972,0.58389 5.25499,2.91944 8.17443,5.83888 2.91944,2.62749 5.83888,4.6711 6.42277,4.6711 1.45972,0 8.17443,5.54694 8.17443,6.71471 0,0.58389 1.75166,2.91944 4.08722,4.963051 5.83888,6.130824 7.2986,7.590544 7.2986,8.75832 0,0.583888 0.29194,1.167776 0.87583,1.167776 0.58389,0 1.16777,0.583888 1.45972,1.45972 0.29194,1.167776 1.16777,2.335552 1.75166,3.211384 0.87583,0.875832 2.04361,2.91944 3.21139,4.671104 3.79527,7.006656 4.37916,7.882488 4.96304,8.466376 0.29195,0.291944 1.16778,2.043608 2.04361,3.795272 2.04361,3.795273 2.91944,5.546933 6.71471,11.677763 5.255,8.46637 4.96305,7.88248 2.33556,12.26164 -1.45972,2.04361 -4.08722,4.96305 -5.54694,6.42277 -3.79527,3.50333 -3.79527,6.71471 0,10.21804 4.08722,4.08722 3.79527,7.88249 -0.87583,12.84554 -5.54694,6.42277 -5.83888,6.42277 -7.59055,6.42277 -0.87583,0 -1.75166,0.58389 -2.0436,0.87583 -0.58389,1.45972 -13.42943,2.6275 -14.30526,1.45972 -0.29194,-0.58389 0.29194,-4.37916 1.45972,-8.75832 2.91944,-12.55359 3.21138,-19.85219 1.16778,-19.85219 -3.21139,0 -4.67111,2.91944 -7.00666,11.9697 -3.79527,15.18109 -6.42277,17.80859 -16.34886,15.76498 -4.96305,-1.16778 -4.96305,-1.75167 0.29194,-9.9261 12.26165,-18.68442 14.88914,-27.44274 7.00666,-21.8958 -3.21139,2.04361 -12.84554,15.47303 -18.39248,25.10718 -2.91944,4.96305 -4.08721,5.54694 -10.50998,3.79528 -9.05026,-2.33556 -9.05026,-2.04361 8.75832,-19.8522 8.75832,-8.75832 16.05692,-16.34886 16.05692,-16.6408 0,-1.75167 -4.6711,0.29194 -9.63415,4.37916 -3.21139,2.62749 -6.42277,4.6711 -6.71471,4.6711 -1.45972,0 -8.17444,5.54694 -16.05692,13.72137 -9.63416,9.92609 -9.34221,9.63415 -21.01997,7.88249 -6.13083,-1.16778 -11.96971,-1.16778 -13.13748,-0.58389 -0.58389,0.29194 -5.54694,-0.87583 -8.46638,-2.33555 -0.87583,-0.29195 -5.54693,-1.16778 -10.21804,-2.04361 -4.96305,-0.58389 -9.34221,-1.45972 -9.92609,-2.04361 -0.87584,-0.29194 -5.54694,-0.87583 -10.80193,-0.87583 -5.54694,0 -10.21804,-0.29195 -11.09387,-0.87583 -0.58389,-0.58389 -3.50333,-0.87584 -6.71472,-0.58389 -2.91944,0.29194 -5.83888,0.29194 -6.13082,-0.29195 -0.29194,-0.29194 -1.75166,-0.58388 -3.21138,-0.29194 -1.45972,0.29194 -3.21139,0.29194 -4.08722,-0.29194 -1.16778,-1.16778 -14.5972,-2.33556 -27.73468,-2.33556 -3.50333,0 -12.26165,0.58389 -19.85219,1.16778 -7.2986,0.58389 -16.93275,1.45972 -21.01997,1.45972 -4.08722,0.29194 -8.75832,1.16778 -10.21804,1.75166 -1.45972,0.87584 -4.96305,1.75167 -7.88249,2.04361 -2.62749,0.29195 -4.96305,0.87583 -5.25499,1.45972 -0.29194,0.29195 -2.33555,0.87583 -4.37916,0.87583 -1.75166,0 -3.79527,0.29195 -4.08722,0.87584 -0.29194,0.58388 -1.75166,0.87583 -3.21138,0.87583 -1.45972,0 -3.21138,0.58389 -4.37916,1.16777 -0.87583,0.87584 -4.37916,2.04361 -7.2986,3.21139 -3.21138,0.87583 -6.13082,2.04361 -6.71471,2.33555 -0.29195,0.58389 -1.45972,0.87583 -2.04361,0.87583 -2.33555,0 -15.47303,7.00666 -20.72802,10.80193 -1.45972,1.16778 -3.21139,2.33555 -3.79528,2.33555 -0.58388,0 -1.16777,0.29195 -1.16777,0.87584 0,0.58388 -10.50999,7.88248 -15.18109,10.21803 -7.00666,3.79528 -28.90246,27.73468 -28.90246,31.8219 0,0.58389 -0.29194,1.16778 -0.87583,1.16778 -0.58389,0 -0.87583,0.58388 -0.87583,1.45972 0,0.58388 -2.33555,4.6711 -5.25499,9.05026 -7.2986,10.80193 -18.10053,32.98967 -23.64747,47.87881 -1.16777,3.79528 -2.62749,7.2986 -3.21138,7.59055 -0.29194,0.58389 -0.58389,2.04361 -0.58389,3.79527 0,3.79527 -2.33555,2.6275 -2.91944,-1.75166 0,-1.75167 0.29195,-4.08722 0.87583,-4.67111 0.58389,-0.58389 0.58389,-2.33555 0,-4.6711 -0.58388,-2.33555 -0.58388,-4.08722 0,-4.67111 0.58389,-0.58388 0.87584,-2.91943 0.87584,-5.25499 0,-2.62749 0.58388,-4.96304 1.16777,-5.25499 0.58389,-0.29194 0.58389,-2.04361 0.29195,-4.6711 -0.29195,-2.04361 -0.29195,-4.08722 0.29194,-4.37916 0.58389,-0.29195 0.58389,-1.75167 0.58389,-2.91944 -0.29195,-1.45972 -0.29195,-2.33555 0.58389,-2.33555 0.58388,0 0.87583,-1.75167 0.87583,-3.50333 0,-1.75167 0.29194,-4.08722 0.87583,-4.96305 0.58389,-0.87583 1.45972,-3.79527 2.04361,-6.71471 0.58389,-2.91944 1.75166,-7.00666 2.91944,-9.05027 0.87583,-2.33555 1.75166,-4.37916 1.75166,-4.6711 0,-0.58389 7.00666,-15.76498 8.46638,-18.10053 0.29194,-0.87583 1.75166,-3.21138 2.91944,-5.54693 0.87583,-2.04361 3.50333,-6.13083 5.54693,-8.75832 2.04361,-2.6275 3.79528,-5.54694 3.79528,-6.13083 0,-0.58388 0.87583,-1.75166 2.33555,-2.91944 1.16777,-0.87583 2.33555,-2.33555 2.33555,-2.62749 0,-0.58389 0.58389,-1.75167 1.75166,-2.6275 3.21139,-2.91944 1.75167,-7.00665 -2.33555,-7.00665 -2.04361,0 -6.13082,3.79527 -6.13082,5.83888 0,0.87583 -0.87583,1.75166 -1.75167,2.0436 -0.87583,0.29195 -2.33555,1.75167 -2.62749,3.21139 -0.58389,1.16777 -2.33555,3.79527 -4.08722,5.54693 -1.45972,1.75167 -2.62749,3.79527 -2.62749,4.37916 0,0.58389 -0.87584,1.75167 -1.45972,2.33555 -0.87584,0.58389 -1.45972,2.04361 -1.45972,2.91944 0,0.87584 -0.87584,2.33556 -1.75167,3.21139 -1.16777,0.87583 -2.04361,2.33555 -2.04361,2.91944 0,0.87583 -1.16777,3.79527 -2.91944,6.71471 -1.45972,2.91944 -2.62749,6.13082 -2.62749,7.2986 0,1.45972 -0.87583,3.21138 -1.75167,4.37916 -1.75166,1.75166 -2.62749,4.08722 -5.25499,15.76498 -0.58389,2.91944 -1.45972,5.83888 -1.75166,6.42276 -0.87583,2.33556 -2.6275,14.88915 -2.6275,18.39248 0,1.75166 -0.29194,3.50332 -0.87583,3.79527 -0.58389,0.29194 -0.87583,2.62749 -0.87583,5.54693 0.29194,13.72137 0,17.80859 -1.16778,18.39247 -0.87583,0.58389 -0.87583,2.04361 0,6.71472 1.45972,7.59054 1.45972,12.84553 0,12.84553 -0.58389,0 -0.87583,1.75167 -0.29194,5.54694 1.45972,12.84553 1.45972,18.68441 0.87583,19.2683 -0.58389,0.29195 -0.58389,3.21139 -0.29194,7.88249 0.87583,5.83888 0.87583,11.09387 0,20.43608 -0.58389,5.25499 2.62749,36.78494 3.79527,37.66078 0.29194,0.29194 0.87583,1.75166 0.87583,3.50332 0,2.04361 0.58389,4.37916 1.45972,5.54694 0.58389,1.16778 1.16778,2.6275 1.16778,2.91944 -0.29195,0.58389 0.29194,2.33555 1.16777,4.08722 1.16778,1.75166 1.75167,4.96304 1.75167,7.88248 0,2.91944 1.16777,8.46638 2.91944,13.72137 1.45972,4.67111 2.62749,9.34221 2.62749,10.50999 0,0.87583 0.58389,2.0436 0.87583,2.33555 0.58389,0.29194 1.16778,1.16777 1.16778,2.04361 0,2.0436 3.50333,11.09387 8.46638,21.8958 7.00665,14.5972 9.3422,18.68441 15.76497,28.31856 2.91944,4.08722 6.42277,9.05027 7.88249,11.38582 1.16778,2.04361 2.91944,4.08722 3.50333,4.37916 0.87583,0.58389 0.87583,0.87583 0.29194,0.87583 -0.29194,0 -2.62749,-1.45972 -4.6711,-2.91944 -2.04361,-1.45972 -4.67111,-3.21138 -6.13083,-3.79527 -1.16777,-0.87583 -2.91944,-2.33555 -4.08721,-3.50333 -0.87583,-1.16777 -2.04361,-2.04361 -2.91944,-2.04361 -0.58389,0 -2.33555,-1.45972 -3.79527,-2.91944 -1.16778,-1.75166 -4.96305,-5.25499 -8.17444,-8.17443 -3.21138,-2.91944 -5.83888,-5.54693 -6.13082,-6.13082 -0.29194,-0.87583 -2.91944,-4.08722 -9.05026,-10.21804 -1.45972,-1.75167 -3.50333,-4.37916 -4.08722,-5.83888 -0.87583,-1.45972 -2.04361,-3.21139 -2.6275,-3.50333 -0.58388,-0.29194 -2.33555,-3.21138 -3.50332,-5.83888 -1.45972,-2.91944 -2.91944,-5.25499 -3.21139,-5.25499 -0.58389,0 -2.62749,-3.50333 -4.96305,-8.17443 -2.0436,-4.37916 -4.37916,-9.34221 -5.25499,-10.80193 -0.58389,-1.45972 -1.16777,-3.21139 -0.87583,-3.79527 q 0.43792,-1.31375 -0.87583,-2.6275 c -0.58389,-0.58389 -1.16778,-2.04361 -1.16778,-2.91944 0,-1.16778 -0.58389,-2.91944 -1.45972,-4.08722 -0.58389,-0.87583 -1.45972,-2.91944 -1.75166,-4.08721 0,-1.75167 -0.87583,-2.33555 -3.21139,-2.6275 -3.50332,-0.29194 -4.96304,1.75167 -3.21138,4.67111 0.58389,0.87583 1.16778,2.62749 1.16778,4.08721 0,1.16778 0.29194,2.33555 0.87583,2.91944 0.58389,0.29195 0.87583,1.75167 0.87583,3.50333 0,2.04361 0.58389,3.50333 1.45972,3.79527 0.87583,0.29195 1.45972,1.75167 1.45972,3.21139 0,1.45972 0.29194,3.21138 0.87583,3.50332 1.16778,0.58389 5.54694,10.21804 6.13083,12.26165 0,0.58389 0.87583,2.33555 2.0436,3.50333 1.16778,1.16778 2.04361,2.33555 2.04361,2.91944 0,0.29194 1.45972,2.33555 2.91944,4.6711 1.45972,2.33556 2.91944,4.67111 2.91944,4.96305 0,0.58389 0.29195,1.16778 0.58389,1.16778 0.58389,0 1.16778,0.87583 1.75166,2.04361 3.21139,7.00665 43.7916,45.8352 47.87882,45.8352 0.58389,0 1.16778,0.29195 1.16778,0.87584 0,0.29194 4.37916,3.50332 9.63415,7.00665 5.25499,3.50333 11.38581,7.59055 13.42942,9.05027 2.04361,1.45972 4.96305,3.50332 6.42277,4.08721 1.75166,0.87583 4.6711,3.21139 6.71471,4.96305 2.33555,1.45972 4.67111,2.91944 5.25499,2.91944 0.87584,0 2.33556,0.87583 3.21139,2.04361 0.87583,0.87583 4.08721,3.21138 7.00665,4.6711 7.00666,3.50333 9.34221,4.96305 12.26165,6.71471 1.16778,0.87584 3.50333,1.75167 4.96305,2.33556 1.75166,0.29194 6.42277,2.33555 10.50998,4.37916 4.08722,2.33555 9.63416,4.96304 11.96971,5.83888 2.62749,0.87583 5.54693,1.75166 6.42277,2.33555 0.87583,0.58389 4.6711,1.16777 8.46637,1.75166 3.79527,0.58389 7.59055,1.45972 8.46638,2.04361 0.87583,0.29194 3.21138,0.87583 4.96305,0.87583 1.75166,0 3.21138,0.29195 3.21138,0.87583 0,0.58389 1.45972,0.87584 2.91944,0.87584 6.13082,0 7.2986,0 7.88249,0.87583 0.29194,0.58389 2.04361,1.16777 3.50333,1.16777 1.75166,0 3.50332,0.29195 4.08721,0.87584 0.58389,0.58388 4.37916,1.16777 8.17443,1.16777 4.08722,0 7.59055,0.29195 7.88249,0.87583 0,0.29195 2.91944,0.87584 6.42277,0.87584 3.21138,0 6.13082,0.29194 6.42277,0.87583 0.29194,0.29194 2.62749,0.87583 4.96305,0.87583 2.62749,0 4.96304,0.29194 5.54693,0.87583 1.45972,1.45972 43.7916,2.91944 59.55658,2.04361 h 6.42277 c 4.37916,0.29194 20.72802,-1.45972 21.31191,-2.04361 0.29194,-0.58389 3.50333,-0.87583 7.00665,-0.87583 3.79528,0 9.9261,-0.58389 14.01332,-1.45972 3.79527,-0.87583 8.75832,-1.75166 11.09387,-2.04361 2.33555,-0.29194 6.71471,-1.16777 9.34221,-2.04361 2.91944,-0.87583 7.88248,-2.33555 10.80192,-2.91944 3.21139,-0.58388 7.00666,-1.45972 8.46638,-2.0436 1.45972,-0.58389 4.37916,-1.45972 6.42277,-1.75167 2.04361,-0.58389 4.37916,-1.45972 4.96305,-1.75166 0.29194,-0.58389 2.0436,-1.16778 3.21138,-1.16778 1.16778,-0.29194 2.91944,-0.58389 3.79527,-0.87583 0.58389,-0.29194 3.50333,-1.45972 6.13083,-2.33555 2.33555,-0.87583 4.96304,-2.04361 5.54693,-2.33555 0.29195,-0.58389 1.75167,-0.87584 2.91944,-0.87584 1.16778,0 2.33555,-0.29194 2.33555,-0.87583 q 0,-0.87583 0.87584,-0.87583 c 0.58388,0 3.50332,-1.16778 6.42276,-2.6275 2.91944,-1.16777 7.2986,-3.21138 9.63416,-4.08721 5.25499,-2.04361 16.93275,-8.46638 23.9394,-12.84554 2.6275,-1.75166 5.255,-2.91944 5.54694,-2.91944 0.87583,0 11.67776,-7.59054 18.10053,-12.84553 4.08721,-2.91944 8.46637,-6.42277 9.92609,-7.59055 1.45972,-0.87583 4.08722,-3.21138 6.13083,-5.25499 1.75166,-2.04361 3.50333,-3.50333 3.79527,-3.50333 2.33555,0 23.35552,-23.06357 27.44274,-30.36217 1.45972,-2.33556 3.50332,-5.255 4.37916,-6.13083 2.0436,-1.75166 2.0436,-1.75166 -0.29195,-4.37916 -9.05026,-9.63415 2.04361,-25.69107 13.13748,-18.39247 9.34221,5.83888 6.71471,22.77163 -3.50333,21.8958 -5.54693,-0.29194 -5.54693,-0.29194 -5.54693,2.33555 0,1.75167 -0.58389,4.08722 -0.87583,5.25499 -0.58389,1.16778 -1.45972,4.37916 -2.04361,7.2986 -2.04361,9.05027 -8.75832,22.47969 -14.30526,29.1944 -1.75166,2.33556 -3.50333,4.67111 -3.50333,5.255 0,2.62749 -35.90911,35.90911 -38.82855,35.90911 -0.29194,0 -2.33555,1.45972 -4.6711,3.21138 -4.67111,3.79527 -15.18109,9.9261 -16.93275,9.9261 -0.87584,0 -1.45972,0.29194 -1.45972,0.87583 q 0,0.87583 -0.87584,0.87583 c -0.87583,0 -14.5972,7.88249 -19.85219,11.38582 -0.58389,0.58389 -2.04361,1.16777 -2.62749,1.45972 -0.87584,0.29194 -2.33556,1.45972 -3.21139,2.33555 -1.16777,0.87583 -2.91944,1.75166 -4.08721,1.75166 -1.16778,0 -2.33556,0.29195 -2.6275,0.87584 -0.29194,0.58388 -1.45972,0.87583 -2.33555,0.87583 -0.87583,0 -2.91944,0.58389 -4.37916,1.45972 -2.6275,1.16777 -7.00666,3.21138 -11.67776,4.96305 -1.16778,0.58388 -4.37916,1.75166 -7.00666,2.33555 -2.62749,0.87583 -5.83888,2.04361 -7.2986,2.62749 -1.75166,0.29195 -5.54693,1.45972 -8.46637,2.33556 -3.21139,0.87583 -7.59055,2.0436 -10.21804,2.91944 -2.33556,0.58388 -5.54694,1.16777 -7.00666,1.16777 -1.75166,0 -3.21138,0.58389 -3.50333,1.16778 a 4.671104,4.671104 0 0 1 -2.62749,0.87583 c -1.45972,0 -4.08722,0.58389 -6.42277,1.45972 -2.33555,0.87583 -6.42277,1.75166 -9.34221,2.33555 -7.2986,1.16778 -18.68442,3.50333 -22.47969,4.67111 -1.75166,0.58388 -4.96305,0.87583 -7.00665,0.87583 -3.79528,-0.29195 -12.5536,0.87583 -31.8219,3.50333 -5.54694,0.87583 -13.42942,1.75166 -16.93275,1.75166 -32.11384,0.58389 -55.76131,1.45972 -58.09686,2.04361 -1.75166,0.29194 -3.21138,0 -3.79527,-0.58389 M 691.61533,455.10957 c -2.33555,0 -3.21138,1.45972 -3.21138,5.25499 0,4.37916 4.6711,7.00666 5.83888,3.50333 1.75166,-4.37916 0.29194,-8.75832 -2.6275,-8.75832 M 543.01584,80.545419 c -3.50333,-3.211384 -9.05027,-3.795272 -8.17444,-0.875832 2.33556,5.546936 2.6275,7.006656 1.75167,9.050264 -2.33555,5.254992 2.33555,7.2986 7.2986,3.503328 3.50333,-2.91944 3.21138,-8.174432 -0.87583,-11.67776 m -10.50999,4.087216 c -2.33555,0 -3.50333,4.37916 -1.75166,5.546936 2.04361,1.167776 2.62749,1.167776 3.79527,-0.875832 1.16778,-2.335552 0.29194,-4.671104 -2.04361,-4.671104"
     id="path2" />
</svg>
